<svg xmlns="http://www.w3.org/2000/svg" width="305.53" height="227.656" viewBox="0 0 305.53 227.656">
  <g id="_503_Error_Service_Unavailable-rafiki" data-name="503 Error Service Unavailable-rafiki" transform="translate(0 -55)">
    <g id="freepik--background-complete--inject-42" transform="translate(0 55)">
      <rect id="Rectangle_2960" data-name="Rectangle 2960" width="305.53" height="0.153" transform="translate(0 200.061)" fill="#ebebeb"/>
      <path id="Path_29931" data-name="Path 29931" d="M159.682,227.808H41.693a3.489,3.489,0,0,1-3.483-3.489V58.459A3.489,3.489,0,0,1,41.693,55H159.682a3.489,3.489,0,0,1,3.489,3.489V224.318A3.489,3.489,0,0,1,159.682,227.808ZM41.693,55.122a3.336,3.336,0,0,0-3.33,3.336v165.86a3.336,3.336,0,0,0,3.33,3.336H159.682a3.342,3.342,0,0,0,3.336-3.336V58.459a3.342,3.342,0,0,0-3.336-3.336Z" transform="translate(-14.861 -55)" fill="#ebebeb"/>
      <path id="Path_29932" data-name="Path 29932" d="M375.985,227.808h-118a3.5,3.5,0,0,1-3.489-3.489V58.459A3.5,3.5,0,0,1,257.989,55h118a3.489,3.489,0,0,1,3.477,3.459v165.86A3.489,3.489,0,0,1,375.985,227.808Zm-118-172.685a3.342,3.342,0,0,0-3.336,3.336v165.86a3.343,3.343,0,0,0,3.336,3.336h118a3.343,3.343,0,0,0,3.336-3.336V58.459a3.343,3.343,0,0,0-3.336-3.336Z" transform="translate(-98.985 -55)" fill="#ebebeb"/>
      <rect id="Rectangle_2961" data-name="Rectangle 2961" width="15.888" height="0.153" transform="translate(31.335 205.878)" fill="#ebebeb"/>
      <rect id="Rectangle_2962" data-name="Rectangle 2962" width="27.516" height="0.153" transform="translate(88.695 204.222)" fill="#ebebeb"/>
      <rect id="Rectangle_2963" data-name="Rectangle 2963" width="37.146" height="0.153" transform="translate(47.834 211.555)" fill="#ebebeb"/>
      <rect id="Rectangle_2964" data-name="Rectangle 2964" width="11.751" height="0.153" transform="translate(262.444 210.528)" fill="#ebebeb"/>
      <rect id="Rectangle_2965" data-name="Rectangle 2965" width="33.785" height="0.153" transform="translate(223.214 210.528)" fill="#ebebeb"/>
      <rect id="Rectangle_2966" data-name="Rectangle 2966" width="45.506" height="0.153" transform="translate(157.073 207.95)" fill="#ebebeb"/>
      <path id="Path_29933" data-name="Path 29933" d="M185.91,215.44l-7.73,102.047h74.549l7.73-102.047Zm46.874,72.1a16.535,16.535,0,0,1-16.218,15.075,13.773,13.773,0,0,1-13.926-15.069l2.719-35.869a16.535,16.535,0,0,1,16.211-15.075,13.779,13.779,0,0,1,13.938,15.075Z" transform="translate(-69.301 -117.402)" fill="#e6e6e6"/>
      <path id="Path_29934" data-name="Path 29934" d="M269.7,378.137H161l.629-6.7H270.318Z" transform="translate(-62.619 -178.076)" fill="#e6e6e6"/>
      <path id="Path_29935" data-name="Path 29935" d="M406.527,318.7h9.642a.947.947,0,0,0,.947-1l-.037-.684a1.057,1.057,0,0,0-1.045-1h-9.643a.947.947,0,0,0-.953,1l.037.684A1.063,1.063,0,0,0,406.527,318.7Z" transform="translate(-157.691 -156.521)" fill="#e0e0e0"/>
      <path id="Path_29936" data-name="Path 29936" d="M380.2,318.7h9.624a.941.941,0,0,0,.947-1l-.037-.684a1.057,1.057,0,0,0-1.045-1h-9.624a.947.947,0,0,0-.953,1l.037.684A1.069,1.069,0,0,0,380.2,318.7Z" transform="translate(-147.451 -156.521)" fill="#e0e0e0"/>
      <path id="Path_29937" data-name="Path 29937" d="M284.8,227.314H60.154a4.986,4.986,0,0,1-4.925-4.693L48.465,87.687A4.412,4.412,0,0,1,52.919,83H277.563a4.98,4.98,0,0,1,4.925,4.687l6.764,134.934a4.418,4.418,0,0,1-4.455,4.693Z" transform="translate(-18.846 -65.89)" fill="#e0e0e0"/>
      <path id="Path_29938" data-name="Path 29938" d="M289.31,227.314H64.672a5,5,0,0,1-4.956-4.693L52.995,87.687A4.412,4.412,0,0,1,57.437,83H282.075a4.992,4.992,0,0,1,4.956,4.687l6.722,134.934a4.418,4.418,0,0,1-4.442,4.693Z" transform="translate(-20.608 -65.89)" fill="#e6e6e6"/>
      <path id="Path_29939" data-name="Path 29939" d="M70.266,222.02,64,96.539A2.774,2.774,0,0,1,66.789,93.6H281.956a3.116,3.116,0,0,1,3.086,2.939l6.269,125.481a2.768,2.768,0,0,1-2.786,2.939H73.352A3.123,3.123,0,0,1,70.266,222.02Z" transform="translate(-24.889 -70.013)" fill="#f5f5f5"/>
      <path id="Path_29940" data-name="Path 29940" d="M82.363,102.447a2.444,2.444,0,0,1-2.444,2.6,2.768,2.768,0,0,1-2.731-2.6,2.444,2.444,0,0,1,2.444-2.6A2.756,2.756,0,0,1,82.363,102.447Z" transform="translate(-30.019 -72.444)" fill="#fff"/>
      <path id="Path_29941" data-name="Path 29941" d="M101.633,102.447a2.444,2.444,0,0,1-2.444,2.6,2.768,2.768,0,0,1-2.731-2.6,2.444,2.444,0,0,1,2.444-2.6A2.756,2.756,0,0,1,101.633,102.447Z" transform="translate(-37.514 -72.444)" fill="#fff"/>
      <path id="Path_29942" data-name="Path 29942" d="M120.917,102.447a2.444,2.444,0,0,1-2.444,2.6,2.756,2.756,0,0,1-2.725-2.6,2.444,2.444,0,0,1,2.444-2.6A2.762,2.762,0,0,1,120.917,102.447Z" transform="translate(-45.017 -72.444)" fill="#fff"/>
      <g id="Group_7099" data-name="Group 7099" transform="translate(67.754 23.587)" opacity="0.6">
        <path id="Path_29943" data-name="Path 29943" d="M110.88,224.959h31.011L170.244,93.6H139.233Z" transform="translate(-110.88 -93.6)" fill="#fff"/>
        <path id="Path_29944" data-name="Path 29944" d="M329.28,224.959h7.852L365.485,93.6h-7.852Z" transform="translate(-195.825 -93.6)" fill="#fff"/>
        <path id="Path_29945" data-name="Path 29945" d="M172.91,224.959h44L245.259,93.6h-44Z" transform="translate(-135.006 -93.6)" fill="#fff"/>
      </g>
    </g>
    <g id="freepik--Shadow--inject-42" transform="translate(34.287 268.822)">
      <ellipse id="freepik--path--inject-42" cx="118.478" cy="6.917" rx="118.478" ry="6.917" fill="#f5f5f5"/>
    </g>
    <g id="freepik--Character--inject-42" transform="translate(60.568 88.362)">
      <path id="Path_29946" data-name="Path 29946" d="M342.335,242.012h-.22c-16.279-1.332-27.5-15.277-27.95-15.839a2.731,2.731,0,0,1,4.277-3.391c.128.165,9.716,11.983,22.994,13.669,4.277-4.277,7.944-15.57,7.534-18.986v-.1c-.086-1.1-.293-4.888.788-7.119a2.731,2.731,0,0,1,4.888,2.371,12.709,12.709,0,0,0-.269,4.277c.611,5.622-4.277,19.811-10.388,24.558A2.731,2.731,0,0,1,342.335,242.012Z" transform="translate(-182.554 -148.243)" fill="#263238"/>
      <path id="Path_29947" data-name="Path 29947" d="M129.489,204.581a40.208,40.208,0,0,1-29.673-13.614,2.725,2.725,0,0,1-.159-3.446c4.412-5.933,12.221-19.945,13.443-24.51a6.667,6.667,0,0,0-2.53-2.646,2.719,2.719,0,0,1-1.558-2.206l-.44-4.473a2.731,2.731,0,0,1,5.432-.538l.306,3.11a13.651,13.651,0,0,1,4.161,5.286,2.737,2.737,0,0,1,.2,1.381c-.562,4.846-8.426,18.882-13.266,25.976a34.148,34.148,0,0,0,25.4,10.18,2.731,2.731,0,0,1,.5,5.438C131.139,204.533,130.51,204.581,129.489,204.581Z" transform="translate(-99.119 -125.619)" fill="#263238"/>
      <path id="Path_29948" data-name="Path 29948" d="M285.543,383.394H278.21a2.731,2.731,0,0,1-2.634-3.459,102.409,102.409,0,0,0,3.556-21.21c-2.591-12.221-5.029-23.349-5.053-23.459a2.731,2.731,0,0,1,5.335-1.167c0,.11,2.518,11.525,5.139,23.88a2.583,2.583,0,0,1,.049.782,112.247,112.247,0,0,1-2.854,19.175h3.776a2.731,2.731,0,0,1,0,5.457Z" transform="translate(-167.15 -196.109)" fill="#263238"/>
      <path id="Path_29949" data-name="Path 29949" d="M195.954,383.294h-4.131a2.719,2.719,0,0,1-2.7-3.1c.7-5.011,4.277-14.134,8.127-23.306,1.363-12.1,2.475-22.487,2.487-22.609a2.731,2.731,0,1,1,5.426.611c0,.1-1.149,10.73-2.536,23.006a2.633,2.633,0,0,1-.2.745,196.871,196.871,0,0,0-7.211,19.212h.733a2.731,2.731,0,1,1,0,5.457Z" transform="translate(-134.115 -196.009)" fill="#263238"/>
      <path id="Path_29950" data-name="Path 29950" d="M183.228,111l-31.812,31.818c-1.6,35.264-1.473,72.307,0,110.712h105.2c-2.084-49.557-2.279-97.262,0-142.53Z" transform="translate(-119.011 -110.143)" fill="#fff"/>
      <path id="Path_29951" data-name="Path 29951" d="M256.274,253.709h-105.2a.55.55,0,0,1-.55-.526c-1.522-39.884-1.522-77.158,0-110.767a.55.55,0,0,1,.165-.361L182.5,110.239a.544.544,0,0,1,.385-.159h73.388a.55.55,0,0,1,.4.171.531.531,0,0,1,.147.4c-2.194,43.593-2.194,90.2,0,142.481a.544.544,0,0,1-.153.4A.526.526,0,0,1,256.274,253.709Zm-104.681-1.094H255.705c-2.163-51.854-2.169-98.13,0-141.442H183.111L151.593,142.68C150.1,176.068,150.1,213.05,151.593,252.616Z" transform="translate(-118.669 -109.785)" fill="#263238"/>
      <path id="Path_29952" data-name="Path 29952" d="M202.85,283.316l1.149-.1a2.591,2.591,0,0,0,.434,1.137,2.261,2.261,0,0,0,.965.715,3.587,3.587,0,0,0,1.424.275,3.293,3.293,0,0,0,1.222-.208,1.607,1.607,0,0,0,.764-.568,1.277,1.277,0,0,0,.226-.788,1.222,1.222,0,0,0-.287-.758,1.9,1.9,0,0,0-.855-.544,15.96,15.96,0,0,0-1.668-.452,8.811,8.811,0,0,1-1.8-.574,2.688,2.688,0,0,1-1.027-.862,2.163,2.163,0,0,1-.379-1.149,2.243,2.243,0,0,1,1.448-2.224,4.173,4.173,0,0,1,1.674-.318,4.773,4.773,0,0,1,1.833.33,2.774,2.774,0,0,1,1.222.972,2.909,2.909,0,0,1,.525,1.454l-1.167.092a2,2,0,0,0-.7-1.326,2.585,2.585,0,0,0-1.625-.446,2.444,2.444,0,0,0-1.595.409,1.149,1.149,0,0,0-.458.978,1.094,1.094,0,0,0,.4.819,5.01,5.01,0,0,0,1.87.654,12.48,12.48,0,0,1,2.072.611,2.964,2.964,0,0,1,1.222.935,2.408,2.408,0,0,1,.446,1.314,2.444,2.444,0,0,1-.354,1.387,2.616,2.616,0,0,1-1.167,1.014,4.136,4.136,0,0,1-1.76.361,5.535,5.535,0,0,1-2.114-.361A3.19,3.19,0,0,1,203.4,285,3.306,3.306,0,0,1,202.85,283.316Z" transform="translate(-139.464 -174.667)" fill="#263238"/>
      <path id="Path_29953" data-name="Path 29953" d="M221.709,285.749l1.179.147a2.658,2.658,0,0,1-.953,1.589,2.939,2.939,0,0,1-1.882.568,3.2,3.2,0,0,1-2.371-.9,3.666,3.666,0,0,1-.978-2.53,3.556,3.556,0,0,1,.739-2.615,2.8,2.8,0,0,1,2.212-.935,2.982,2.982,0,0,1,2.23.917,3.74,3.74,0,0,1,.972,2.566c0,.067,0,.165,0,.3h-4.986a2.719,2.719,0,0,0,.715,1.674,1.943,1.943,0,0,0,1.424.611,1.662,1.662,0,0,0,1.051-.33A2.023,2.023,0,0,0,221.709,285.749Zm-3.807-1.833h3.734a2.444,2.444,0,0,0-.489-1.265,1.833,1.833,0,0,0-1.436-.654,1.729,1.729,0,0,0-1.289.519,1.986,1.986,0,0,0-.519,1.405Z" transform="translate(-144.844 -176.288)" fill="#263238"/>
      <path id="Path_29954" data-name="Path 29954" d="M229.1,287.9l-.318-6.679h1.014l.049,1.014a2.6,2.6,0,0,1,.678-.941,1.222,1.222,0,0,1,.715-.226,2.267,2.267,0,0,1,1.179.367l-.336,1.051a1.681,1.681,0,0,0-.843-.244,1.033,1.033,0,0,0-.654.22,1.088,1.088,0,0,0-.391.611,4.179,4.179,0,0,0-.128,1.32l.165,3.5Z" transform="translate(-149.55 -176.29)" fill="#263238"/>
      <path id="Path_29955" data-name="Path 29955" d="M237.56,288l-2.86-6.679h1.222l1.625,4c.177.434.342.88.495,1.344.086-.348.2-.776.361-1.271l1.289-4.076h1.167L238.647,288Z" transform="translate(-151.852 -176.387)" fill="#263238"/>
      <path id="Path_29956" data-name="Path 29956" d="M246.237,278.462l-.067-1.3h1.118l.061,1.3Zm.379,7.944-.324-6.679h1.137l.318,6.679Z" transform="translate(-156.313 -174.769)" fill="#263238"/>
      <path id="Path_29957" data-name="Path 29957" d="M255.469,285.452l1.124.147a2.738,2.738,0,0,1-.849,1.8,2.609,2.609,0,0,1-1.833.648,3.007,3.007,0,0,1-2.249-.9,3.783,3.783,0,0,1-.959-2.566,4.6,4.6,0,0,1,.269-1.894A2.34,2.34,0,0,1,252,281.467a3.1,3.1,0,0,1,1.577-.409,2.884,2.884,0,0,1,1.833.55,2.683,2.683,0,0,1,.959,1.564l-1.088.171a1.986,1.986,0,0,0-.611-1.014,1.516,1.516,0,0,0-.984-.336,1.668,1.668,0,0,0-1.363.611,2.823,2.823,0,0,0-.44,1.943,3.147,3.147,0,0,0,.611,1.955,1.79,1.79,0,0,0,1.381.611,1.546,1.546,0,0,0,1.094-.409A1.931,1.931,0,0,0,255.469,285.452Z" transform="translate(-158.072 -176.284)" fill="#263238"/>
      <path id="Path_29958" data-name="Path 29958" d="M266.229,285.749l1.179.147a2.658,2.658,0,0,1-.953,1.589,2.939,2.939,0,0,1-1.882.568,3.2,3.2,0,0,1-2.371-.9,3.7,3.7,0,0,1-.978-2.53A3.532,3.532,0,0,1,261.97,282a2.786,2.786,0,0,1,2.206-.935,2.982,2.982,0,0,1,2.23.917,3.74,3.74,0,0,1,.972,2.566v.3h-4.986a2.719,2.719,0,0,0,.7,1.687,1.955,1.955,0,0,0,1.43.611,1.644,1.644,0,0,0,1.045-.33A2.023,2.023,0,0,0,266.229,285.749Zm-3.807-1.833h3.734a2.371,2.371,0,0,0-.489-1.265,1.833,1.833,0,0,0-1.436-.654,1.7,1.7,0,0,0-1.283.519,1.967,1.967,0,0,0-.525,1.405Z" transform="translate(-162.159 -176.288)" fill="#263238"/>
      <path id="Path_29959" data-name="Path 29959" d="M190.51,309.089l-.049-.984a2.31,2.31,0,0,1-2.065,1.137,2.854,2.854,0,0,1-1.118-.226,1.993,1.993,0,0,1-.788-.568,2.23,2.23,0,0,1-.385-.843,5.5,5.5,0,0,1-.122-1.057l-.2-4.137h1.137l.177,3.7a6.41,6.41,0,0,0,.128,1.222,1.259,1.259,0,0,0,.483.7,1.5,1.5,0,0,0,.868.251,1.784,1.784,0,0,0,.947-.263,1.357,1.357,0,0,0,.611-.709,3.667,3.667,0,0,0,.122-1.308l-.171-3.575h1.13l.318,6.679Z" transform="translate(-132.825 -184.59)" fill="#263238"/>
      <path id="Path_29960" data-name="Path 29960" d="M197.874,308.989l-.324-6.679h1.02l.049.947a2.267,2.267,0,0,1,2.071-1.1,2.915,2.915,0,0,1,1.118.214,1.833,1.833,0,0,1,.788.574,2.255,2.255,0,0,1,.391.837,6.11,6.11,0,0,1,.116,1.1l.2,4.106h-1.13l-.2-4.064a3.007,3.007,0,0,0-.183-1.033,1.137,1.137,0,0,0-.495-.55,1.54,1.54,0,0,0-.794-.208,1.766,1.766,0,0,0-1.222.464,2.194,2.194,0,0,0-.446,1.742l.177,3.666Z" transform="translate(-137.403 -184.49)" fill="#263238"/>
      <path id="Path_29961" data-name="Path 29961" d="M213.836,308.175a3.869,3.869,0,0,1-1.179.758,3.4,3.4,0,0,1-1.222.22,2.56,2.56,0,0,1-1.723-.538,1.87,1.87,0,0,1-.654-1.375,1.76,1.76,0,0,1,.177-.9,1.833,1.833,0,0,1,.556-.654,2.783,2.783,0,0,1,.794-.367,7.61,7.61,0,0,1,1-.171,9.892,9.892,0,0,0,2-.391v-.293a1.332,1.332,0,0,0-.367-.978,2.481,2.481,0,0,0-2.475-.1,1.626,1.626,0,0,0-.513.99l-1.118-.147a2.56,2.56,0,0,1,.446-1.149,2.029,2.029,0,0,1,.965-.678,4.468,4.468,0,0,1,1.5-.232,4.063,4.063,0,0,1,1.4.2,1.7,1.7,0,0,1,1.222,1.277,7.031,7.031,0,0,1,.1,1.045l.073,1.509a16.294,16.294,0,0,0,.165,2,2.744,2.744,0,0,0,.33.8h-1.185A2.341,2.341,0,0,1,213.836,308.175Zm-.22-2.53a7.748,7.748,0,0,1-1.833.428,4.379,4.379,0,0,0-.978.226.917.917,0,0,0-.428.373.941.941,0,0,0-.134.538,1.027,1.027,0,0,0,.379.752,1.54,1.54,0,0,0,1.021.306,2.273,2.273,0,0,0,1.149-.287,1.668,1.668,0,0,0,.715-.782,2.89,2.89,0,0,0,.128-1.137Z" transform="translate(-141.877 -184.495)" fill="#263238"/>
      <path id="Path_29962" data-name="Path 29962" d="M222.75,309.089l-2.86-6.679h1.222l1.595,4.027c.177.434.342.886.495,1.35.086-.354.2-.776.361-1.271l1.289-4.076h1.161l-2.206,6.679Z" transform="translate(-146.092 -184.59)" fill="#263238"/>
      <path id="Path_29963" data-name="Path 29963" d="M236.106,308.175a3.869,3.869,0,0,1-1.179.758,3.4,3.4,0,0,1-1.222.22,2.548,2.548,0,0,1-1.717-.538,1.833,1.833,0,0,1-.66-1.375,1.76,1.76,0,0,1,.177-.9,1.834,1.834,0,0,1,.556-.654,2.743,2.743,0,0,1,.8-.367,7.327,7.327,0,0,1,1-.171,9.892,9.892,0,0,0,2-.391v-.293a1.308,1.308,0,0,0-.367-.978,2.481,2.481,0,0,0-2.475-.1,1.625,1.625,0,0,0-.513.99l-1.118-.147a2.561,2.561,0,0,1,.446-1.149,2.029,2.029,0,0,1,.965-.678,4.468,4.468,0,0,1,1.5-.232,4.063,4.063,0,0,1,1.4.2,1.7,1.7,0,0,1,1.222,1.277,6.271,6.271,0,0,1,.1,1.045l.073,1.509a15.825,15.825,0,0,0,.141,1.974,2.565,2.565,0,0,0,.324.8h-1.185A2.443,2.443,0,0,1,236.106,308.175Zm-.22-2.53a7.748,7.748,0,0,1-1.833.428,4.38,4.38,0,0,0-.978.226.917.917,0,0,0-.428.373.941.941,0,0,0-.134.538,1.027,1.027,0,0,0,.379.752,1.54,1.54,0,0,0,1.02.306,2.273,2.273,0,0,0,1.149-.287,1.668,1.668,0,0,0,.715-.782,2.683,2.683,0,0,0,.128-1.137Z" transform="translate(-150.539 -184.495)" fill="#263238"/>
      <path id="Path_29964" data-name="Path 29964" d="M243.151,299.552l-.061-1.3h1.13l.067,1.3Zm.379,7.944-.318-6.679h1.13l.324,6.679Z" transform="translate(-155.115 -182.972)" fill="#263238"/>
      <path id="Path_29965" data-name="Path 29965" d="M248.166,307.471l-.446-9.221h1.137l.44,9.221Z" transform="translate(-156.916 -182.972)" fill="#263238"/>
      <path id="Path_29966" data-name="Path 29966" d="M257.2,308.175a3.844,3.844,0,0,1-1.173.758,3.417,3.417,0,0,1-1.222.22,2.554,2.554,0,0,1-1.717-.538,1.87,1.87,0,0,1-.654-1.375,1.76,1.76,0,0,1,.733-1.552,2.708,2.708,0,0,1,.794-.367,7.624,7.624,0,0,1,1-.171,9.984,9.984,0,0,0,2-.391v-.293a1.332,1.332,0,0,0-.367-.978,1.974,1.974,0,0,0-1.308-.385,1.949,1.949,0,0,0-1.167.281,1.656,1.656,0,0,0-.519.99l-1.112-.147a2.628,2.628,0,0,1,.44-1.149,2.078,2.078,0,0,1,.972-.678,4.467,4.467,0,0,1,1.5-.232,4.089,4.089,0,0,1,1.4.2,1.7,1.7,0,0,1,1.222,1.277,7.027,7.027,0,0,1,.1,1.045l.073,1.509a16.3,16.3,0,0,0,.165,2,2.725,2.725,0,0,0,.324.8h-1.179A2.444,2.444,0,0,1,257.2,308.175Zm-.214-2.53a7.829,7.829,0,0,1-1.833.428,4.381,4.381,0,0,0-.978.226.886.886,0,0,0-.428.373.941.941,0,0,0-.134.538,1.008,1.008,0,0,0,.379.752,1.54,1.54,0,0,0,1.02.306,2.273,2.273,0,0,0,1.149-.287,1.625,1.625,0,0,0,.709-.782,2.683,2.683,0,0,0,.128-1.137Z" transform="translate(-158.749 -184.495)" fill="#263238"/>
      <path id="Path_29967" data-name="Path 29967" d="M265.661,307.471H264.61l-.44-9.221h1.118l.159,3.287a2.12,2.12,0,0,1,1.784-.9,2.78,2.78,0,0,1,1.179.25,2.512,2.512,0,0,1,.941.7,3.7,3.7,0,0,1,.611,1.082,4.532,4.532,0,0,1,.263,1.363,3.666,3.666,0,0,1-.721,2.652,2.511,2.511,0,0,1-1.992.941,2.255,2.255,0,0,1-1.907-.99Zm-.177-3.391a3.666,3.666,0,0,0,.409,1.735,1.723,1.723,0,0,0,1.491.874,1.552,1.552,0,0,0,1.253-.642,2.848,2.848,0,0,0,.452-1.925,3.147,3.147,0,0,0-.611-1.931,1.668,1.668,0,0,0-1.289-.611,1.558,1.558,0,0,0-1.253.648A2.762,2.762,0,0,0,265.484,304.08Z" transform="translate(-163.314 -182.972)" fill="#263238"/>
      <path id="Path_29968" data-name="Path 29968" d="M276.306,307.471l-.446-9.221H277l.44,9.221Z" transform="translate(-167.861 -182.972)" fill="#263238"/>
      <path id="Path_29969" data-name="Path 29969" d="M285.429,306.839l1.179.147a2.7,2.7,0,0,1-.953,1.589,2.952,2.952,0,0,1-1.882.568,3.226,3.226,0,0,1-2.371-.9,3.667,3.667,0,0,1-.978-2.53,3.551,3.551,0,0,1,.739-2.621,2.823,2.823,0,0,1,2.212-.929,3,3,0,0,1,2.23.911,3.764,3.764,0,0,1,.972,2.566v.306h-4.986a2.719,2.719,0,0,0,.7,1.687,1.937,1.937,0,0,0,1.424.58,1.7,1.7,0,0,0,1.051-.324,2.09,2.09,0,0,0,.66-1.045Zm-3.807-1.833h3.734a2.444,2.444,0,0,0-.489-1.265,1.833,1.833,0,0,0-1.436-.654,1.729,1.729,0,0,0-1.289.526A1.986,1.986,0,0,0,281.622,305.006Z" transform="translate(-169.626 -184.491)" fill="#263238"/>
      <path id="Path_29970" data-name="Path 29970" d="M285.875,318.943H274.4a.409.409,0,0,1-.409-.409.4.4,0,0,1,.409-.4h11.476a.4.4,0,0,1,.409.4A.409.409,0,0,1,285.875,318.943Z" transform="translate(-167.134 -190.704)" fill="#0a5cd6"/>
      <path id="Path_29971" data-name="Path 29971" d="M234,318.943H182.739a.409.409,0,0,1-.409-.409.4.4,0,0,1,.409-.4h51.243a.4.4,0,0,1,.409.4.409.409,0,0,1-.4.409Z" transform="translate(-131.483 -190.704)" fill="#0a5cd6"/>
      <path id="Path_29972" data-name="Path 29972" d="M210.25,216.194c-.122-2.664-1.632-4.766-3.379-4.705s-3.055,2.267-2.945,4.931,1.632,4.766,3.379,4.7S210.373,218.852,210.25,216.194Z" transform="translate(-139.88 -149.226)" fill="#0a5cd6"/>
      <path id="Path_29973" data-name="Path 29973" d="M270.62,214.828c-.122-2.658-1.632-4.76-3.379-4.7s-3.055,2.267-2.945,4.931,1.638,4.766,3.379,4.7S270.743,217.492,270.62,214.828Z" transform="translate(-163.361 -148.697)" fill="#0a5cd6"/>
      <path id="Path_29974" data-name="Path 29974" d="M227.046,236.1a22.334,22.334,0,0,1,17.495.794.776.776,0,0,1,.3,1.063.794.794,0,0,1-1.069.3,21.5,21.5,0,0,0-19.193.611.8.8,0,0,1-1.063-.33.776.776,0,0,1,.336-1.051A25.5,25.5,0,0,1,227.046,236.1Z" transform="translate(-147.467 -158.25)" fill="#0a5cd6"/>
      <path id="Path_29975" data-name="Path 29975" d="M197.837,178.34a1.614,1.614,0,0,1,.77.22,1.577,1.577,0,0,1,.562,2.145,15.454,15.454,0,0,1-11.946,7.815,1.583,1.583,0,0,1-1.644-1.5,1.558,1.558,0,0,1,1.491-1.625h0a12.3,12.3,0,0,0,9.386-6.276,1.54,1.54,0,0,1,1.381-.782Z" transform="translate(-132.746 -136.334)" fill="#0a5cd6"/>
      <path id="Path_29976" data-name="Path 29976" d="M265.228,176.851a1.57,1.57,0,0,1,1.424.44,12.648,12.648,0,0,0,10.706,3.862,1.589,1.589,0,0,1,1.833,1.222,1.552,1.552,0,0,1-1.222,1.833,15.791,15.791,0,0,1-13.572-4.736,1.552,1.552,0,0,1,.8-2.628Z" transform="translate(-163.223 -135.743)" fill="#0a5cd6"/>
      <path id="Path_29977" data-name="Path 29977" d="M312.718,181.492l-4.467.416a3.19,3.19,0,0,1-3.41-2.481l-6.19-27.73a3.19,3.19,0,0,1,2.3-3.776l11.971-3.141Z" transform="translate(-176.696 -123.281)" opacity="0.2"/>
      <path id="Path_29978" data-name="Path 29978" d="M186.881,145.633c-3.11-8.488-6.221-22.071-2.939-34.653L152.13,142.8C161.131,145.823,175.466,147.112,186.881,145.633Z" transform="translate(-119.737 -110.135)" opacity="0.2"/>
      <path id="Path_29979" data-name="Path 29979" d="M183.962,142.8c-3.489-10.3-2.065-24.308,0-31.818L152.15,142.8C161.78,144.552,172.541,144.271,183.962,142.8Z" transform="translate(-119.745 -110.135)" fill="#fff"/>
      <path id="Path_29980" data-name="Path 29980" d="M166.379,144.2a81.355,81.355,0,0,1-14.665-1.222.538.538,0,0,1-.287-.917l31.812-31.818a.544.544,0,0,1,.91.532c-1.919,6.991-3.514,21.143,0,31.494a.568.568,0,0,1-.055.464.532.532,0,0,1-.391.251,135.563,135.563,0,0,1-17.324,1.216Zm-13.443-2.114c8.457,1.4,18.277,1.369,29.942-.1-2.878-9.129-2.224-21.21-.293-29.575Z" transform="translate(-119.4 -109.786)" fill="#263238"/>
      <path id="Path_29981" data-name="Path 29981" d="M375.388,210.77a.91.91,0,0,1-.88-.678l-11.207-42.7a.913.913,0,1,1,1.766-.464l11.207,42.7a.911.911,0,0,1-.654,1.112.733.733,0,0,1-.232.031Z" transform="translate(-201.858 -131.63)" fill="#263238"/>
      <rect id="Rectangle_2967" data-name="Rectangle 2967" width="0.612" height="3.373" transform="translate(193.81 17.954) rotate(-14.452)" fill="#0a5cd6"/>
      <path id="Path_29982" data-name="Path 29982" d="M404.919,122.73l-2.353-8.964a4.742,4.742,0,0,0-5.781-3.379L390.633,112l-.153-.611,6.153-1.619a5.353,5.353,0,0,1,6.52,3.813l2.359,8.97Z" transform="translate(-212.441 -109.597)" fill="#0a5cd6"/>
      <rect id="Rectangle_2968" data-name="Rectangle 2968" width="66.636" height="35.46" rx="5.24" transform="matrix(0.967, -0.254, 0.254, 0.967, 123.38, 18.381)" fill="#0a5cd6"/>
      <rect id="Rectangle_2969" data-name="Rectangle 2969" width="44.406" height="15.484" rx="5.24" transform="matrix(0.967, -0.254, 0.254, 0.967, 141.982, 45.479)" fill="#0a5cd6"/>
      <path id="Path_29983" data-name="Path 29983" d="M342.15,187.108l5.029-1.308.336,1.3-3.147.819.251.965,2.939-.758.324,1.222-2.921.764.312,1.192,3.239-.837.354,1.375-5.115,1.332Z" transform="translate(-193.644 -137.397)" fill="#fff"/>
      <path id="Path_29984" data-name="Path 29984" d="M353.8,190.752l-1.583-6.074,3.129-.813a4.679,4.679,0,0,1,1.369-.2,1.46,1.46,0,0,1,.886.361,1.925,1.925,0,0,1,.55,1.833,1.679,1.679,0,0,1-.44.752,2.254,2.254,0,0,1-.611.409,1.277,1.277,0,0,1,.929.342,3.052,3.052,0,0,1,.367.306l1.363,1.522-2.12.556-1.473-1.6a1.417,1.417,0,0,0-.458-.379.825.825,0,0,0-.5,0l-.165.043.642,2.444Zm.941-4.106.794-.2a2.929,2.929,0,0,0,.477-.214.489.489,0,0,0,.251-.269.611.611,0,0,0-.275-.788,1.222,1.222,0,0,0-.739,0l-.825.214Z" transform="translate(-197.56 -136.569)" fill="#fff"/>
      <path id="Path_29985" data-name="Path 29985" d="M364.589,187.942,363,181.868l3.129-.813a4.887,4.887,0,0,1,1.369-.2,1.448,1.448,0,0,1,.88.361,1.687,1.687,0,0,1,.538.91,1.718,1.718,0,0,1,0,.929,1.742,1.742,0,0,1-.434.745,2.53,2.53,0,0,1-.611.416,1.767,1.767,0,0,1,.544.092,2.124,2.124,0,0,1,.385.244,2.865,2.865,0,0,1,.36.306l1.369,1.528-2.12.55-1.485-1.595a1.369,1.369,0,0,0-.464-.379.807.807,0,0,0-.495,0l-.165.043.642,2.444Zm.947-4.1.794-.208a3.23,3.23,0,0,0,.471-.214.483.483,0,0,0,.257-.269.611.611,0,0,0-.275-.782,1.155,1.155,0,0,0-.745,0l-.819.214Z" transform="translate(-201.753 -135.476)" fill="#fff"/>
      <path id="Path_29986" data-name="Path 29986" d="M374.333,182.225a2.97,2.97,0,0,1,2.316-3.96,3.3,3.3,0,0,1,2.548.208,3.2,3.2,0,0,1,1.412,2.065,3.942,3.942,0,0,1,.1,1.833,2.621,2.621,0,0,1-.764,1.332,3.556,3.556,0,0,1-1.589.819,3.978,3.978,0,0,1-1.784.11,2.628,2.628,0,0,1-1.363-.745,3.617,3.617,0,0,1-.874-1.662Zm1.876-.477a2.078,2.078,0,0,0,.684,1.222,1.332,1.332,0,0,0,1.87-.477,2.316,2.316,0,0,0-.037-1.5,1.925,1.925,0,0,0-.672-1.161,1.222,1.222,0,0,0-1.039-.153,1.173,1.173,0,0,0-.807.642A2.12,2.12,0,0,0,376.209,181.749Z" transform="translate(-206.09 -134.403)" fill="#fff"/>
      <path id="Path_29987" data-name="Path 29987" d="M386.723,182.186l-1.583-6.068,3.129-.813a4.455,4.455,0,0,1,1.369-.2,1.442,1.442,0,0,1,.886.361,1.9,1.9,0,0,1,.544,1.833,1.759,1.759,0,0,1-.434.752,2.254,2.254,0,0,1-.611.409,1.981,1.981,0,0,1,.55.1,1.882,1.882,0,0,1,.379.238,2.444,2.444,0,0,1,.361.312l1.369,1.522-2.12.556-1.485-1.595a1.485,1.485,0,0,0-.464-.385.849.849,0,0,0-.495,0l-.165.043.642,2.444Zm.941-4.1.794-.2a3.628,3.628,0,0,0,.477-.214.513.513,0,0,0,.251-.269.611.611,0,0,0-.275-.788,1.179,1.179,0,0,0-.739,0l-.825.214Z" transform="translate(-210.364 -133.239)" fill="#fff"/>
      <text id="_404" data-name="404" transform="translate(139.737 39.961) rotate(-16)" fill="#fff" font-size="22" font-family="Poppins-SemiBold, Poppins" font-weight="600"><tspan x="0" y="0">404</tspan></text>
    </g>
  </g>
</svg>
