<svg xmlns="http://www.w3.org/2000/svg" width="27.157" height="27.157" viewBox="0 0 27.157 27.157"><defs><style>.a,.b,.c{fill:none;}.a,.b{stroke:#fff;stroke-width:1.5px;}.a{stroke-linecap:round;}.c{opacity:0;}</style></defs><g transform="translate(-108 -184.843)"><g transform="translate(0 -3.157)"><path class="a" d="M10.09,0A7.534,7.534,0,0,0,2.554,7.536V9.912a5.875,5.875,0,0,1-.713,2.58L.4,14.891a2.413,2.413,0,0,0,1.358,3.678,26.41,26.41,0,0,0,16.668,0,2.512,2.512,0,0,0,1.358-3.678l-1.437-2.4a5.917,5.917,0,0,1-.713-2.58V7.536A7.58,7.58,0,0,0,10.09,0Z" transform="translate(111.511 190.263)"/><path class="b" d="M7.536,0A3.781,3.781,0,0,1,3.768,3.768,3.775,3.775,0,0,1,1.109,2.659,3.775,3.775,0,0,1,0,0" transform="translate(117.811 209.296)"/><path class="c" d="M0,0H27.157V27.157H0Z" transform="translate(108 188)"/></g></g></svg>