<svg xmlns="http://www.w3.org/2000/svg" width="118.818" height="118.818" viewBox="0 0 118.818 118.818"><defs><style>.a,.b{fill:#559739;}.a{opacity:0.1;}</style></defs><path class="a" d="M54.341,0A54.341,54.341,0,1,1,0,54.341,54.341,54.341,0,0,1,54.341,0Z" transform="translate(5.038 5.038)"/><path class="b" d="M166.583,137.452,145.329,158.7l-8.877-8.874a4.95,4.95,0,0,0-7,7l12.377,12.377a4.948,4.948,0,0,0,7,0l24.754-24.754a4.95,4.95,0,1,0-7-7Z" transform="translate(-88.395 -93.92)"/><path class="b" d="M113.867,54.458a4.953,4.953,0,0,0-4.951,4.951,49.521,49.521,0,1,1-14.382-34.88,4.95,4.95,0,1,0,7.028-6.973,59.4,59.4,0,1,0,17.256,41.854A4.953,4.953,0,0,0,113.867,54.458Z"/></svg>