<svg xmlns="http://www.w3.org/2000/svg" width="29.062" height="19.618" viewBox="0 0 29.062 19.618">
  <path id="contactus_email_icon" d="M.072,21.948V5.806q0-.028.084-.532l9.5,8.127L.184,22.509a2.375,2.375,0,0,1-.112-.561Zm1.261-17.8a1.208,1.208,0,0,1,.476-.084H27.4a1.587,1.587,0,0,1,.5.084l-9.529,8.155-1.261,1.009-2.494,2.046-2.494-2.046-1.261-1.009ZM1.361,23.6l9.557-9.164,3.7,3,3.7-3L27.873,23.6a1.346,1.346,0,0,1-.476.084H1.81a1.269,1.269,0,0,1-.448-.084ZM19.578,13.4,29.05,5.273a1.673,1.673,0,0,1,.084.532V21.948a2.148,2.148,0,0,1-.084.561Z" transform="translate(-0.072 -4.068)" fill="#fff"/>
</svg>
