<svg xmlns="http://www.w3.org/2000/svg" xmlns:xlink="http://www.w3.org/1999/xlink" width="162.957" height="134.426" viewBox="0 0 162.957 134.426"><defs><style>.a{fill:#eaeef9;}.b{fill:url(#a);}.c{fill:#d8ddeb;}.d{fill:url(#d);}.e{fill:url(#e);}.f{fill:none;stroke:#939dae;stroke-linecap:round;stroke-linejoin:round;stroke-miterlimit:10;stroke-width:4px;}.g{filter:url(#b);}</style><linearGradient id="a" x1="0.5" y1="-0.023" x2="0.5" y2="1.011" gradientUnits="objectBoundingBox"><stop offset="0" stop-color="#fdfeff"/><stop offset="0.996" stop-color="#ecf0f5"/></linearGradient><filter id="b" x="0" y="1.323" width="162.957" height="133.103" filterUnits="userSpaceOnUse"><feOffset dy="11" input="SourceAlpha"/><feGaussianBlur stdDeviation="11" result="c"/><feFlood flood-color="#657a93" flood-opacity="0.271"/><feComposite operator="in" in2="c"/><feComposite in="SourceGraphic"/></filter><linearGradient id="d" x1="0.5" y1="-0.023" x2="0.5" y2="1.011" xlink:href="#a"/><linearGradient id="e" x1="0.5" y1="-0.023" x2="0.5" y2="1.011" xlink:href="#a"/></defs><g transform="translate(14.745)"><path class="a" d="M52.068,104.342A52.171,52.171,0,1,0,0,52.171,52.092,52.092,0,0,0,52.068,104.342Z" transform="translate(14.667 4.211)"/><path class="a" d="M4.211,8.421A4.211,4.211,0,1,0,0,4.211,4.21,4.21,0,0,0,4.211,8.421Z" transform="translate(111.206 13.762)"/><path class="a" d="M2.876,5.751A2.876,2.876,0,1,0,0,2.876,2.877,2.877,0,0,0,2.876,5.751Z" transform="translate(118.703 0)"/><path class="a" d="M2.876,5.751A2.876,2.876,0,1,0,0,2.876,2.873,2.873,0,0,0,2.876,5.751Z" transform="translate(14.565 16.329)"/><path class="a" d="M5.34,10.681A5.34,5.34,0,1,0,0,5.34,5.341,5.341,0,0,0,5.34,10.681Z" transform="translate(0 73.563)"/><g class="g" transform="matrix(1, 0, 0, 1, -14.75, 0)"><path class="b" d="M90.035,67.1H6.926A6.929,6.929,0,0,1,0,60.181V6.922A6.929,6.929,0,0,1,6.926,0H90.035a6.925,6.925,0,0,1,6.922,6.922v53.5A7.214,7.214,0,0,1,90.035,67.1Z" transform="translate(33 23.32)"/></g><rect class="c" width="14.392" height="5.292" rx="1" transform="translate(33.383 25.767)"/><rect class="c" width="14.392" height="5.292" rx="1" transform="translate(84.977 25.767)"/><path class="d" d="M9.242,0H1.027A1.028,1.028,0,0,0,0,1.027v12.4A1.028,1.028,0,0,0,1.027,14.45H9.242a1.029,1.029,0,0,0,1.027-1.027V1.027A1.029,1.029,0,0,0,9.242,0Z" transform="translate(35.45 13.762)"/><path class="e" d="M9.243,0H1.027A1.03,1.03,0,0,0,0,1.027v12.4A1.03,1.03,0,0,0,1.027,14.45H9.243a1.03,1.03,0,0,0,1.027-1.027V1.027A1.03,1.03,0,0,0,9.243,0Z" transform="translate(87.041 13.762)"/><path class="f" d="M7.881,15.754A7.877,7.877,0,1,0,0,7.877,7.877,7.877,0,0,0,7.881,15.754Z" transform="translate(40.465 44.099)"/><path class="f" d="M0,12.652A12.74,12.74,0,0,1,12.658,0,12.74,12.74,0,0,1,25.315,12.652" transform="translate(35.689 60.099)"/><path class="f" d="M0,.5H25.554" transform="translate(74.139 50.048)"/><path class="f" d="M0,.5H10.026" transform="translate(74.139 62.937)"/></g></svg>