<svg xmlns="http://www.w3.org/2000/svg" xmlns:xlink="http://www.w3.org/1999/xlink" width="171.886" height="130.97" viewBox="0 0 171.886 130.97">
  <defs>
    <linearGradient id="linear-gradient" x1="0.5" y1="-0.023" x2="0.5" y2="1.011" gradientUnits="objectBoundingBox">
      <stop offset="0" stop-color="#fdfeff"/>
      <stop offset="0.996" stop-color="#ecf0f5"/>
    </linearGradient>
    <filter id="Path" x="0" y="3.71" width="148.56" height="127.26" filterUnits="userSpaceOnUse">
      <feOffset dy="11" input="SourceAlpha"/>
      <feGaussianBlur stdDeviation="11" result="blur"/>
      <feFlood flood-color="#657a93" flood-opacity="0.271"/>
      <feComposite operator="in" in2="blur"/>
      <feComposite in="SourceGraphic"/>
    </filter>
    <filter id="Path-2" x="59.84" y="8.13" width="112.046" height="114.62" filterUnits="userSpaceOnUse">
      <feOffset dy="11" input="SourceAlpha"/>
      <feGaussianBlur stdDeviation="11" result="blur-2"/>
      <feFlood flood-color="#657a93" flood-opacity="0.271"/>
      <feComposite operator="in" in2="blur-2"/>
      <feComposite in="SourceGraphic"/>
    </filter>
    <linearGradient id="linear-gradient-3" x1="0.5" y1="-0.023" x2="0.5" y2="1.011" xlink:href="#linear-gradient"/>
  </defs>
  <g id="emptystate" transform="translate(2.97)">
    <path id="Path-3" data-name="Path" d="M59.77,119.78A59.89,59.89,0,1,0,0,59.93,59.845,59.845,0,0,0,59.77,119.78Z" transform="translate(17.94 0)" fill="#eaeef9"/>
    <path id="Path-4" data-name="Path" d="M55.61,20.94c-9.11.29-20.05,0-27.8-.09-7.66.28-18.7.38-27.81.09C9.01,15.83,12.21,6.27,12.6,0H42.82C43.5,6.17,46.7,15.83,55.61,20.94Z" transform="translate(50.66 98.61)" fill="#d5ddea"/>
    <path id="Path-5" data-name="Path" d="M113.54,3.48V82.34a3.369,3.369,0,0,1-3.3,3.47H3.29A3.36,3.36,0,0,1,0,82.34V3.48A3.5,3.5,0,0,1,3.29,0H110.05A3.542,3.542,0,0,1,113.54,3.48Z" transform="translate(21.99 15.21)" fill="#fff"/>
    <path id="Path-6" data-name="Path" d="M114,3.42V71H0V3.42A3.483,3.483,0,0,1,3.33,0H110.54A3.414,3.414,0,0,1,114,3.42Z" transform="translate(22.03 14.71)" fill="#989fb0"/>
    <path id="Path-7" data-name="Path" d="M105.87,0H0V63H106V0Z" transform="translate(26.03 18.71)" fill="#fff"/>
    <path id="Path-8" data-name="Path" d="M2.8,5.6A2.748,2.748,0,0,0,5.61,2.8,2.748,2.748,0,0,0,2.8,0,2.74,2.74,0,0,0,0,2.8,2.74,2.74,0,0,0,2.8,5.6Z" transform="translate(75.76 90.69)" fill="#d6dde8"/>
    <path id="Path-9" data-name="Path" d="M0,.5H153.06" transform="translate(0 119.24)" fill="none" stroke="#d6dde8" stroke-linecap="round" stroke-linejoin="round" stroke-width="2"/>
    <path id="Path-10" data-name="Path" d="M3.97,7.91A3.912,3.912,0,0,0,7.94,3.96,3.921,3.921,0,0,0,3.97,0,3.921,3.921,0,0,0,0,3.96,3.975,3.975,0,0,0,3.97,7.91Z" transform="translate(6.8 44.78)" fill="#eaeef9"/>
    <path id="Path-11" data-name="Path" d="M2.72,5.41A2.772,2.772,0,0,0,5.43,2.7,2.77,2.77,0,0,0,2.72,0,2.772,2.772,0,0,0,0,2.7,2.708,2.708,0,0,0,2.72,5.41Z" transform="translate(4.08 34.45)" fill="#eaeef9"/>
    <path id="Path-12" data-name="Path" d="M5.04,10.04A5.02,5.02,0,1,0,5.04,0a5.02,5.02,0,1,0,0,10.04Z" transform="translate(143.87 52.6)" fill="#eaeef9"/>
    <g transform="matrix(1, 0, 0, 1, -2.97, 0)" filter="url(#Path)">
      <path id="Path-13" data-name="Path" d="M77.85,61.26H4.71A4.615,4.615,0,0,1,0,56.68V4.58A4.615,4.615,0,0,1,4.71,0H77.85a4.609,4.609,0,0,1,4.71,4.58v52.1A4.766,4.766,0,0,1,77.85,61.26Z" transform="translate(33 25.71)" fill="url(#linear-gradient)"/>
    </g>
    <path id="Path-14" data-name="Path" d="M2.05,4.1A2.05,2.05,0,1,0,0,2.05,2.055,2.055,0,0,0,2.05,4.1Z" transform="translate(35.35 30.17)" fill="#989fb0"/>
    <path id="Path-15" data-name="Path" d="M2.06,4.1A2.05,2.05,0,1,0,0,2.05,2.053,2.053,0,0,0,2.06,4.1Z" transform="translate(41.39 30.17)" fill="#989fb0"/>
    <path id="Path-16" data-name="Path" d="M2.05,4.1A2.05,2.05,0,1,0,0,2.05,2.055,2.055,0,0,0,2.05,4.1Z" transform="translate(47.56 30.17)" fill="#989fb0"/>
    <path id="Path-17" data-name="Path" d="M12.94,2.17H1.33A1.326,1.326,0,0,1,0,1.08,1.232,1.232,0,0,1,1.33,0H12.94a1.327,1.327,0,0,1,1.33,1.08A1.232,1.232,0,0,1,12.94,2.17Z" transform="translate(35.95 43.44)" fill="#989fb0"/>
    <path id="Path-18" data-name="Path" d="M10.04,2.17H1.33A1.327,1.327,0,0,1,0,1.09,1.232,1.232,0,0,1,1.33,0h8.71a1.326,1.326,0,0,1,1.33,1.09A1.575,1.575,0,0,1,10.04,2.17Z" transform="translate(36.07 62.13)" fill="#989fb0"/>
    <path id="Path-19" data-name="Path" d="M20.29,2.17H1.33A1.327,1.327,0,0,1,0,1.09,1.232,1.232,0,0,1,1.33,0H20.29a1.318,1.318,0,0,1,1.33,1.09A1.562,1.562,0,0,1,20.29,2.17Z" transform="translate(79.38 62.13)" fill="#d6dce8"/>
    <path id="Path-20" data-name="Path" d="M25.42,2.17H1.33A1.319,1.319,0,0,1,0,1.09,1.225,1.225,0,0,1,1.33,0H25.42a1.326,1.326,0,0,1,1.33,1.09A1.587,1.587,0,0,1,25.42,2.17Z" transform="translate(49.9 62.13)" fill="#d6dce8"/>
    <path id="Path-21" data-name="Path" d="M16.07,2.17H1.33A1.319,1.319,0,0,1,0,1.09,1.225,1.225,0,0,1,1.33,0H16.07A1.318,1.318,0,0,1,17.4,1.09,1.408,1.408,0,0,1,16.07,2.17Z" transform="translate(40.67 68.28)" fill="#d6dce8"/>
    <path id="Path-22" data-name="Path" d="M9.66,2.17H1.33A1.319,1.319,0,0,1,0,1.09,1.225,1.225,0,0,1,1.33,0H9.66a1.318,1.318,0,0,1,1.33,1.09A1.408,1.408,0,0,1,9.66,2.17Z" transform="translate(60.8 68.28)" fill="#d6dce8"/>
    <path id="Path-23" data-name="Path" d="M18.38,2.17H1.33A1.327,1.327,0,0,1,0,1.09,1.232,1.232,0,0,1,1.33,0H18.38a1.326,1.326,0,0,1,1.33,1.09C19.71,1.69,19.22,2.17,18.38,2.17Z" transform="translate(35.95 74.31)" fill="#989fb0"/>
    <path id="Path-24" data-name="Path" d="M8.12,2.17H1.33A1.327,1.327,0,0,1,0,1.09,1.232,1.232,0,0,1,1.33,0H8.12A1.318,1.318,0,0,1,9.45,1.09C9.45,1.69,8.97,2.17,8.12,2.17Z" transform="translate(58.23 74.31)" fill="#d6dce8"/>
    <path id="Path-25" data-name="Path" d="M8.58,2.17H1.33A1.319,1.319,0,0,1,0,1.09,1.232,1.232,0,0,1,1.33,0H8.58A1.335,1.335,0,0,1,9.91,1.09C9.91,1.69,9.42,2.17,8.58,2.17Z" transform="translate(36.32 80.58)" fill="#d6dce8"/>
    <path id="Path-26" data-name="Path" d="M2.9,2.17H1.33A1.327,1.327,0,0,1,0,1.09,1.239,1.239,0,0,1,1.33,0H2.9A1.327,1.327,0,0,1,4.23,1.09,1.225,1.225,0,0,1,2.9,2.17Z" transform="translate(48.16 80.58)" fill="#d6dce8"/>
    <path id="Path-27" data-name="Path" d="M4.84,2.17H1.33A1.327,1.327,0,0,1,0,1.09,1.232,1.232,0,0,1,1.33,0H4.84A1.326,1.326,0,0,1,6.17,1.09,1.232,1.232,0,0,1,4.84,2.17Z" transform="translate(35.95 56.1)" fill="#d6dce8"/>
    <path id="Path-28" data-name="Path" d="M20.22,2.17H1.33A1.327,1.327,0,0,1,0,1.09,1.232,1.232,0,0,1,1.33,0H20.22a1.318,1.318,0,0,1,1.33,1.09A1.225,1.225,0,0,1,20.22,2.17Z" transform="translate(46.05 56.1)" fill="#d6dce8"/>
    <path id="Path-29" data-name="Path" d="M18.38,2.17H1.33A1.326,1.326,0,0,1,0,1.08,1.232,1.232,0,0,1,1.33,0H18.38a1.327,1.327,0,0,1,1.33,1.08C19.71,1.69,19.22,2.17,18.38,2.17Z" transform="translate(35.95 49.71)" fill="#d6dce8"/>
    <path id="Path-30" data-name="Path" d="M18.38,2.17H1.33A1.326,1.326,0,0,1,0,1.08,1.232,1.232,0,0,1,1.33,0H18.38a1.327,1.327,0,0,1,1.33,1.08C19.71,1.69,19.22,2.17,18.38,2.17Z" transform="translate(58.23 49.71)" fill="#989fb0"/>
    <path id="Path-31" data-name="Path" d="M8.11,2.17H1.33A1.318,1.318,0,0,1,0,1.08,1.225,1.225,0,0,1,1.33,0H8.11A1.319,1.319,0,0,1,9.44,1.08C9.44,1.69,8.96,2.17,8.11,2.17Z" transform="translate(80.67 49.71)" fill="#989fb0"/>
    <g transform="matrix(1, 0, 0, 1, -2.97, 0)" filter="url(#Path-2)">
      <path id="Path-32" data-name="Path" d="M43.54,48.62H2.6A2.58,2.58,0,0,1,0,46.03V2.59A2.646,2.646,0,0,1,2.6,0H43.44a2.58,2.58,0,0,1,2.6,2.59V46.03A2.44,2.44,0,0,1,43.54,48.62Z" transform="translate(92.84 30.13)" fill="url(#linear-gradient)"/>
    </g>
    <path id="Path-33" data-name="Path" d="M43.54,48.62H2.6A2.58,2.58,0,0,1,0,46.03V2.59A2.646,2.646,0,0,1,2.6,0H43.44a2.58,2.58,0,0,1,2.6,2.59V46.03A2.44,2.44,0,0,1,43.54,48.62Z" transform="translate(94.05 25.13)" fill="url(#linear-gradient-3)"/>
    <path id="Path-34" data-name="Path" d="M30.76,6.67H1.7A1.751,1.751,0,0,1,0,4.98V1.69A1.744,1.744,0,0,1,1.7,0H30.76a1.744,1.744,0,0,1,1.7,1.69V4.98A1.573,1.573,0,0,1,30.76,6.67Z" transform="translate(100.64 31.81)" fill="#e3e7ef"/>
    <path id="Path-35" data-name="Path" d="M18.48,6.68H1.3A1.324,1.324,0,0,1,0,5.38V1.3A1.324,1.324,0,0,1,1.3,0H18.38a1.315,1.315,0,0,1,1.29,1.3V5.38A1.173,1.173,0,0,1,18.48,6.68Z" transform="translate(100.64 43.16)" fill="#e3e7ef"/>
    <path id="Path-36" data-name="Path" d="M8.39,6.68H.9a.9.9,0,0,1-.9-.9V.9A.9.9,0,0,1,.9,0H8.39a.9.9,0,0,1,.9.9V5.78C9.39,6.18,8.89,6.68,8.39,6.68Z" transform="translate(123.81 43.16)" fill="#e3e7ef"/>
    <path id="Path-37" data-name="Path" d="M0,.5H32.56" transform="translate(100.64 56.91)" fill="none" stroke="#d6dde8" stroke-width="2"/>
    <path id="Path-38" data-name="Path" d="M0,.5H32.56" transform="translate(100.64 61.99)" fill="none" stroke="#d6dde8" stroke-width="2"/>
    <path id="Path-39" data-name="Path" d="M0,.5H16.48" transform="translate(100.64 67.07)" fill="none" stroke="#d6dde8" stroke-width="2"/>
  </g>
</svg>
