<svg xmlns="http://www.w3.org/2000/svg" xmlns:xlink="http://www.w3.org/1999/xlink" width="140.06" height="117.257" viewBox="0 0 140.06 117.257"><defs><style>.a{fill:#eaeef9;}.b{fill:url(#a);}.c{fill:#d8ddeb;}.d{fill:url(#d);}.e{fill:url(#e);}.f{fill:none;stroke:#939dae;stroke-linecap:round;stroke-linejoin:round;stroke-miterlimit:10;stroke-width:4px;}.g{fill:url(#f);}.h{fill:#fff;}.i{filter:url(#b);}</style><linearGradient id="a" x1="0.5" y1="-0.023" x2="0.5" y2="1.011" gradientUnits="objectBoundingBox"><stop offset="0" stop-color="#fdfeff"/><stop offset="0.996" stop-color="#ecf0f5"/></linearGradient><filter id="b" x="0" y="0" width="140.06" height="117.257" filterUnits="userSpaceOnUse"><feOffset dy="11" input="SourceAlpha"/><feGaussianBlur stdDeviation="11" result="c"/><feFlood flood-color="#657a93" flood-opacity="0.271"/><feComposite operator="in" in2="c"/><feComposite in="SourceGraphic"/></filter><linearGradient id="d" x1="0.5" y1="-0.023" x2="0.5" y2="1.011" xlink:href="#a"/><linearGradient id="e" x1="0.5" y1="-0.023" x2="0.5" y2="1.011" xlink:href="#a"/><linearGradient id="f" y1="0.5" x2="1" y2="0.5" gradientUnits="objectBoundingBox"><stop offset="0" stop-color="#b0bacc"/><stop offset="1" stop-color="#969eae"/></linearGradient></defs><g transform="translate(-118.413 -461.815)"><g transform="translate(137.469 466)"><path class="a" d="M39.772,79.7A39.851,39.851,0,1,0,0,39.851,39.79,39.79,0,0,0,39.772,79.7Z" transform="translate(11.204 3.216)"/><path class="a" d="M3.216,6.433A3.216,3.216,0,1,0,0,3.216,3.216,3.216,0,0,0,3.216,6.433Z" transform="translate(84.945 10.512)"/><path class="a" d="M2.2,4.393A2.2,2.2,0,1,0,0,2.2,2.2,2.2,0,0,0,2.2,4.393Z" transform="translate(90.671 0)"/><path class="a" d="M2.2,4.393A2.2,2.2,0,1,0,0,2.2,2.195,2.195,0,0,0,2.2,4.393Z" transform="translate(11.125 12.473)"/><path class="a" d="M4.079,8.158A4.079,4.079,0,1,0,0,4.079,4.08,4.08,0,0,0,4.079,8.158Z" transform="translate(0 56.191)"/><g class="i" transform="matrix(1, 0, 0, 1, -19.06, -4.18)"><path class="b" d="M68.773,51.257H5.29A5.292,5.292,0,0,1,0,45.97V5.287A5.292,5.292,0,0,1,5.29,0H68.773A5.29,5.29,0,0,1,74.06,5.287V46.15A5.511,5.511,0,0,1,68.773,51.257Z" transform="translate(33 22)"/></g><rect class="c" width="10.994" height="4.042" rx="1" transform="translate(25.5 19.682)"/><rect class="c" width="10.994" height="4.042" rx="1" transform="translate(64.91 19.682)"/><path class="d" d="M7.059,0H.784A.785.785,0,0,0,0,.784v9.468a.785.785,0,0,0,.784.784H7.059a.786.786,0,0,0,.784-.784V.784A.786.786,0,0,0,7.059,0Z" transform="translate(27.079 10.512)"/><path class="e" d="M7.06,0H.784A.787.787,0,0,0,0,.784v9.468a.787.787,0,0,0,.784.784H7.06a.787.787,0,0,0,.784-.784V.784A.787.787,0,0,0,7.06,0Z" transform="translate(66.486 10.512)"/><path class="f" d="M6.02,12.034A6.017,6.017,0,1,0,0,6.017,6.017,6.017,0,0,0,6.02,12.034Z" transform="translate(30.909 33.685)"/><path class="f" d="M0,9.665A9.731,9.731,0,0,1,9.669,0a9.731,9.731,0,0,1,9.669,9.665" transform="translate(27.261 45.907)"/><path class="f" d="M0,.5H19.52" transform="translate(56.631 38.111)"/><path class="f" d="M0,.5H7.659" transform="translate(56.631 47.956)"/></g><g transform="translate(124 446.563)"><path class="g" d="M24.808,15.147a17.258,17.258,0,0,1-1.089,3.2A12.6,12.6,0,0,1,18.206,23.8,12.394,12.394,0,0,1,10,24.89,12.56,12.56,0,0,1,15.067.285a13.267,13.267,0,0,1,6.344,3.394A12.521,12.521,0,0,1,24.808,15.147Z" transform="translate(50.525 80.917)"/><path class="h" d="M9.035,3.974H6.151V1.089a1.09,1.09,0,0,0-2.179,0V3.974H1.089A1.078,1.078,0,0,0,0,5.062,1.045,1.045,0,0,0,1.089,6.151H3.972V9.036a1.09,1.09,0,0,0,2.179,0V6.151H9.035a1.089,1.089,0,1,0,0-2.178Z" transform="translate(58.031 88.442)"/></g></g></svg>