<svg xmlns="http://www.w3.org/2000/svg" width="22.48" height="25.392" viewBox="0 0 22.48 25.392"><defs><style>.a{fill:#fff;}</style></defs><path class="a" d="M22.25,10.017a10.078,10.078,0,0,0,1.291-1.083,5.538,5.538,0,0,0,1.578-2.9,3.226,3.226,0,0,0-.794-2.888,3.02,3.02,0,0,0-2.192-.855,5.234,5.234,0,0,0-3.6,1.64,14.169,14.169,0,0,0-3.163,5.613,11.458,11.458,0,0,0-2.66-5.381A4.021,4.021,0,0,0,9.9,2.942a2.946,2.946,0,0,0-2.114.84A3.51,3.51,0,0,0,8.169,8.7a8.086,8.086,0,0,0,1.774,1.315H4.5V16.44H6.1V27.68H25.373V16.44h1.606V10.017ZM19.811,5.205a3.481,3.481,0,0,1,2.322-1.111,1.281,1.281,0,0,1,.915.326c.653.653.286,2.165-.785,3.236a11.312,11.312,0,0,1-3.875,2.36H17.117a12.306,12.306,0,0,1,2.694-4.812Zm-11.049.82a1.232,1.232,0,0,1,.306-.966A1.166,1.166,0,0,1,9.9,4.748a2.216,2.216,0,0,1,1.529.689,8.924,8.924,0,0,1,2.024,3.911l.038.138-.138-.038A8.925,8.925,0,0,1,9.447,7.424a2.285,2.285,0,0,1-.684-1.4Zm5.371,20.049H7.71V15.637h6.423V26.074Zm0-11.24H6.1V11.622h8.029v3.211Zm9.634,11.24H17.344V15.637h6.423Zm1.606-11.24H17.344V11.622h8.029v3.211Z" transform="translate(-4.499 -2.288)"/></svg>