<svg xmlns="http://www.w3.org/2000/svg" width="24.522" height="28.025" viewBox="0 0 24.522 28.025">
  <path id="Icon_awesome-calendar-alt" data-name="Icon awesome-calendar-alt" d="M0,25.4a2.628,2.628,0,0,0,2.627,2.627H21.895A2.628,2.628,0,0,0,24.522,25.4V10.51H0ZM17.516,14.67a.659.659,0,0,1,.657-.657h2.189a.659.659,0,0,1,.657.657v2.189a.659.659,0,0,1-.657.657H18.173a.659.659,0,0,1-.657-.657Zm0,7.006a.659.659,0,0,1,.657-.657h2.189a.659.659,0,0,1,.657.657v2.189a.659.659,0,0,1-.657.657H18.173a.659.659,0,0,1-.657-.657ZM10.51,14.67a.659.659,0,0,1,.657-.657h2.189a.659.659,0,0,1,.657.657v2.189a.659.659,0,0,1-.657.657H11.166a.659.659,0,0,1-.657-.657Zm0,7.006a.659.659,0,0,1,.657-.657h2.189a.659.659,0,0,1,.657.657v2.189a.659.659,0,0,1-.657.657H11.166a.659.659,0,0,1-.657-.657ZM3.5,14.67a.659.659,0,0,1,.657-.657H6.35a.659.659,0,0,1,.657.657v2.189a.659.659,0,0,1-.657.657H4.16a.659.659,0,0,1-.657-.657Zm0,7.006a.659.659,0,0,1,.657-.657H6.35a.659.659,0,0,1,.657.657v2.189a.659.659,0,0,1-.657.657H4.16a.659.659,0,0,1-.657-.657ZM21.895,3.5H19.268V.876A.878.878,0,0,0,18.392,0H16.64a.878.878,0,0,0-.876.876V3.5H8.758V.876A.878.878,0,0,0,7.882,0H6.131a.878.878,0,0,0-.876.876V3.5H2.627A2.628,2.628,0,0,0,0,6.131V8.758H24.522V6.131A2.628,2.628,0,0,0,21.895,3.5Z" fill="#fff"/>
</svg>
