<svg xmlns="http://www.w3.org/2000/svg" width="18.023" height="18.023" viewBox="0 0 18.023 18.023">
  <path id="Icon_metro-cross" data-name="Icon metro-cross" d="M20.429,16.407h0L14.962,10.94l5.468-5.468h0a.565.565,0,0,0,0-.8L17.846,2.093a.565.565,0,0,0-.8,0h0L11.582,7.56,6.115,2.093h0a.565.565,0,0,0-.8,0L2.735,4.675a.565.565,0,0,0,0,.8h0L8.2,10.94,2.735,16.407h0a.564.564,0,0,0,0,.8l2.583,2.583a.565.565,0,0,0,.8,0h0l5.468-5.468,5.468,5.468h0a.564.564,0,0,0,.8,0L20.429,17.2a.564.564,0,0,0,0-.8Z" transform="translate(-2.57 -1.928)"/>
</svg>
