<svg xmlns="http://www.w3.org/2000/svg" width="198.489" height="160.072" viewBox="0 0 198.489 160.072">
  <g id="icon" transform="translate(-837 -412.964)">
    <g id="illustration_select_course" transform="translate(837 412.964)">
      <g id="Group_724" data-name="Group 724">
        <path id="Path_6459" data-name="Path 6459" d="M188.885,28.571H9.6a9.617,9.617,0,0,0-9.6,9.6V156.628a9.617,9.617,0,0,0,9.6,9.6H64.029V182.24H48.021v6.4H150.467v-6.4H134.46V166.233h54.424a9.617,9.617,0,0,0,9.6-9.6V38.175A9.617,9.617,0,0,0,188.885,28.571ZM9.6,34.974H188.885a3.2,3.2,0,0,1,3.2,3.2V137.42H6.4V38.175A3.2,3.2,0,0,1,9.6,34.974ZM128.057,182.24H70.432V166.233h57.626Zm60.827-22.411H9.6a3.2,3.2,0,0,1-3.2-3.2V143.823H192.086v12.806A3.2,3.2,0,0,1,188.885,159.83Z" transform="translate(0 -28.571)" fill="#333"/>
      </g>
    </g>
    <g id="Union_1" data-name="Union 1" transform="translate(5328 1277)" fill="#ffca37">
      <path d="M -4364.189453125 -766.2354736328125 L -4373.88916015625 -776.3465576171875 L -4374.03662109375 -776.5004272460938 L -4374.25 -776.5004272460938 L -4423.00048828125 -776.5004272460938 C -4424.93017578125 -776.5004272460938 -4426.5 -778.0703735351562 -4426.5 -780.0001220703125 L -4426.5 -823.0003051757812 C -4426.5 -824.9300537109375 -4424.93017578125 -826.5000610351562 -4423.00048828125 -826.5000610351562 L -4356 -826.5000610351562 C -4354.0703125 -826.5000610351562 -4352.5 -824.9300537109375 -4352.5 -823.0003051757812 L -4352.5 -780.0001220703125 C -4352.5 -778.0703735351562 -4354.0703125 -776.5004272460938 -4356 -776.5004272460938 L -4363.4541015625 -776.5004272460938 L -4363.9423828125 -776.5004272460938 L -4363.9541015625 -776.012451171875 L -4364.189453125 -766.2354736328125 Z" stroke="none"/>
      <path d="M -4364.66015625 -767.4486694335938 L -4364.43017578125 -777.0004272460938 L -4356 -777.0004272460938 C -4354.345703125 -777.0004272460938 -4353 -778.3460693359375 -4353 -780.0001220703125 L -4353 -823.0003051757812 C -4353 -824.6543579101562 -4354.345703125 -826.0000610351562 -4356 -826.0000610351562 L -4423.00048828125 -826.0000610351562 C -4424.654296875 -826.0000610351562 -4426 -824.6543579101562 -4426 -823.0003051757812 L -4426 -780.0001220703125 C -4426 -778.3460693359375 -4424.654296875 -777.0004272460938 -4423.00048828125 -777.0004272460938 L -4373.82373046875 -777.0004272460938 L -4373.5283203125 -776.6926879882812 L -4364.66015625 -767.4486694335938 M -4363.71826171875 -765.0223388671875 L -4374.25 -776.0004272460938 L -4423.00048828125 -776.0004272460938 C -4425.208984375 -776.0004272460938 -4427 -777.790283203125 -4427 -780.0001220703125 L -4427 -823.0003051757812 C -4427 -825.2090454101562 -4425.208984375 -827.0000610351562 -4423.00048828125 -827.0000610351562 L -4356 -827.0000610351562 C -4353.791015625 -827.0000610351562 -4352 -825.2090454101562 -4352 -823.0003051757812 L -4352 -780.0001220703125 C -4352 -777.790283203125 -4353.791015625 -776.0004272460938 -4356 -776.0004272460938 L -4363.4541015625 -776.0004272460938 L -4363.71826171875 -765.0223388671875 Z" stroke="none" fill="#ffca37"/>
    </g>
    <g id="Group_4187" data-name="Group 4187" transform="translate(-41 52.585)">
      <g id="success" transform="translate(1004.489 385.866)">
        <path id="Path" d="M22.01,13.442a15.2,15.2,0,0,1-.967,2.843,11.156,11.156,0,0,1-4.889,4.833,10.963,10.963,0,0,1-7.277.967A11.144,11.144,0,0,1,13.368.252,11.826,11.826,0,0,1,19,3.265,11.106,11.106,0,0,1,22.01,13.442Z" transform="translate(0 0)" fill="#0a51d4"/>
      </g>
      <text id="_1" data-name="1" transform="translate(1013.619 401.531)" fill="#fff" font-size="12" font-family="Poppins-Regular, Poppins"><tspan x="0" y="0">1</tspan></text>
    </g>
    <path id="Icon_material-mail" data-name="Icon material-mail" d="M44.341,6H7.593c-2.526,0-4.57,1.776-4.57,3.948L3,33.634c0,2.171,2.067,3.948,4.593,3.948H44.341c2.526,0,4.593-1.776,4.593-3.948V9.948C48.934,7.776,46.867,6,44.341,6Zm0,7.9L25.967,23.765,7.593,13.9V9.948l18.374,9.869L44.341,9.948Z" transform="translate(912.277 455.419)" fill="#fff"/>
  </g>
</svg>
