<svg xmlns="http://www.w3.org/2000/svg" width="127.073" height="110.836" viewBox="0 0 127.073 110.836"><defs><style>.a{fill:#fff;}</style></defs><g transform="translate(0 0)"><path class="a" d="M571.5,202.538a2.235,2.235,0,0,0,3.16.07l7.547-7.216a2.3,2.3,0,0,0,.345-.424.273.273,0,0,0,.021.024l7.216,7.546a2.235,2.235,0,0,0,3.16.07l7.546-7.216a2.235,2.235,0,0,0,.07-3.16l-7.216-7.546a2.235,2.235,0,0,0-3.16-.07l-7.547,7.216a2.306,2.306,0,0,0-.345.424.266.266,0,0,0-.021-.024l-7.216-7.546a2.235,2.235,0,0,0-3.16-.07l-7.546,7.216a2.235,2.235,0,0,0-.07,3.16Z" transform="translate(-507.887 -183.994)"/><path class="a" d="M268.483,254.842c5.064-.281,6.189-1.406,6.47-3.658s-1.969-8.159-5.345-7.033-2.25,8.159-2.25,8.159l.034.057c-6,.762-16.632-.338-16.632-.338a15.459,15.459,0,0,0,1.687,2.25A76.315,76.315,0,0,0,268.483,254.842Zm2.673-8.58c1.125,0,1.687,1.406,1.687,2.533,0,1.044-.244,2.086-3.414,3.129a21.446,21.446,0,0,1-.244-2.848C269.186,247.668,270.029,246.262,271.156,246.262Z" transform="translate(-245.851 -234.254)"/><path class="a" d="M346.683,384.785c-1.566,7.434-6.322,18.522-20.635,23.353-16.306,5.5-25.671,2.588-33.66-3.18,21.2-23.112,14.843-55.616,11.856-59.981-3.658-5.345-9.847-5.908-14.911,4.5-3.429,7.047-2.86,15.9-2.135,20.884a.481.481,0,0,0,.956-.029c1.414-16.637,7.719-17.561,10.6-16.774,3.1.844,12.38,10.691-2.25,30.384a68.764,68.764,0,0,1-12.965,13.482c-10.686-9.866-22.5-38.521-44.147-37.679-21.664.844-19.131,24.476-18.287,34.042s9.424,45.718,52.471,24.9a66.336,66.336,0,0,0,10.642-6.4,84.094,84.094,0,0,0,10.6,9.63c7.316,5.064,27.29,8.722,41.358-4.783,9.327-8.954,11.234-23.473,11.458-32.242A.482.482,0,0,0,346.683,384.785ZM245.305,408.137c-18.85-1.687-28.134-33.2-8.159-33.2,19.617,0,36.25,25.236,36.84,26.139a.539.539,0,0,0,.036.049c.1.117.584.678,1.348,1.548C265.922,407.576,255.788,409.077,245.305,408.137Z" transform="translate(-220.563 -315.665)"/><path class="a" d="M571.5,202.538a2.235,2.235,0,0,0,3.16.07l7.547-7.216a2.3,2.3,0,0,0,.345-.424.273.273,0,0,0,.021.024l7.216,7.546a2.235,2.235,0,0,0,3.16.07l7.546-7.216a2.235,2.235,0,0,0,.07-3.16l-7.216-7.546a2.235,2.235,0,0,0-3.16-.07l-7.547,7.216a2.306,2.306,0,0,0-.345.424.266.266,0,0,0-.021-.024l-7.216-7.546a2.235,2.235,0,0,0-3.16-.07l-7.546,7.216a2.235,2.235,0,0,0-.07,3.16Z" transform="translate(-507.887 -183.994)"/><path class="a" d="M268.483,254.842c5.064-.281,6.189-1.406,6.47-3.658s-1.969-8.159-5.345-7.033-2.25,8.159-2.25,8.159l.034.057c-6,.762-16.632-.338-16.632-.338a15.459,15.459,0,0,0,1.687,2.25A76.315,76.315,0,0,0,268.483,254.842Zm2.673-8.58c1.125,0,1.687,1.406,1.687,2.533,0,1.044-.244,2.086-3.414,3.129a21.446,21.446,0,0,1-.244-2.848C269.186,247.668,270.029,246.262,271.156,246.262Z" transform="translate(-245.851 -234.254)"/><path class="a" d="M346.683,384.785c-1.566,7.434-6.322,18.522-20.635,23.353-16.306,5.5-25.671,2.588-33.66-3.18,21.2-23.112,14.843-55.616,11.856-59.981-3.658-5.345-9.847-5.908-14.911,4.5-3.429,7.047-2.86,15.9-2.135,20.884a.481.481,0,0,0,.956-.029c1.414-16.637,7.719-17.561,10.6-16.774,3.1.844,12.38,10.691-2.25,30.384a68.764,68.764,0,0,1-12.965,13.482c-10.686-9.866-22.5-38.521-44.147-37.679-21.664.844-19.131,24.476-18.287,34.042s9.424,45.718,52.471,24.9a66.336,66.336,0,0,0,10.642-6.4,84.094,84.094,0,0,0,10.6,9.63c7.316,5.064,27.29,8.722,41.358-4.783,9.327-8.954,11.234-23.473,11.458-32.242A.482.482,0,0,0,346.683,384.785ZM245.305,408.137c-18.85-1.687-28.134-33.2-8.159-33.2,19.617,0,36.25,25.236,36.84,26.139a.539.539,0,0,0,.036.049c.1.117.584.678,1.348,1.548C265.922,407.576,255.788,409.077,245.305,408.137Z" transform="translate(-220.563 -315.665)"/><path class="a" d="M571.5,202.538a2.235,2.235,0,0,0,3.16.07l7.547-7.216a2.3,2.3,0,0,0,.345-.424.273.273,0,0,0,.021.024l7.216,7.546a2.235,2.235,0,0,0,3.16.07l7.546-7.216a2.235,2.235,0,0,0,.07-3.16l-7.216-7.546a2.235,2.235,0,0,0-3.16-.07l-7.547,7.216a2.306,2.306,0,0,0-.345.424.266.266,0,0,0-.021-.024l-7.216-7.546a2.235,2.235,0,0,0-3.16-.07l-7.546,7.216a2.235,2.235,0,0,0-.07,3.16Z" transform="translate(-507.887 -183.994)"/><path class="a" d="M268.483,254.842c5.064-.281,6.189-1.406,6.47-3.658s-1.969-8.159-5.345-7.033-2.25,8.159-2.25,8.159l.034.057c-6,.762-16.632-.338-16.632-.338a15.459,15.459,0,0,0,1.687,2.25A76.315,76.315,0,0,0,268.483,254.842Zm2.673-8.58c1.125,0,1.687,1.406,1.687,2.533,0,1.044-.244,2.086-3.414,3.129a21.446,21.446,0,0,1-.244-2.848C269.186,247.668,270.029,246.262,271.156,246.262Z" transform="translate(-245.851 -234.254)"/><path class="a" d="M346.683,384.785c-1.566,7.434-6.322,18.522-20.635,23.353-16.306,5.5-25.671,2.588-33.66-3.18,21.2-23.112,14.843-55.616,11.856-59.981-3.658-5.345-9.847-5.908-14.911,4.5-3.429,7.047-2.86,15.9-2.135,20.884a.481.481,0,0,0,.956-.029c1.414-16.637,7.719-17.561,10.6-16.774,3.1.844,12.38,10.691-2.25,30.384a68.764,68.764,0,0,1-12.965,13.482c-10.686-9.866-22.5-38.521-44.147-37.679-21.664.844-19.131,24.476-18.287,34.042s9.424,45.718,52.471,24.9a66.336,66.336,0,0,0,10.642-6.4,84.094,84.094,0,0,0,10.6,9.63c7.316,5.064,27.29,8.722,41.358-4.783,9.327-8.954,11.234-23.473,11.458-32.242A.482.482,0,0,0,346.683,384.785ZM245.305,408.137c-18.85-1.687-28.134-33.2-8.159-33.2,19.617,0,36.25,25.236,36.84,26.139a.539.539,0,0,0,.036.049c.1.117.584.678,1.348,1.548C265.922,407.576,255.788,409.077,245.305,408.137Z" transform="translate(-220.563 -315.665)"/></g></svg>