<svg xmlns="http://www.w3.org/2000/svg" width="172" height="94.211" viewBox="0 0 172 94.211">
  <g id="logo" transform="translate(-149.008 -14.406)">
    <text id="AlQuranClasses" transform="translate(235.008 101.617)" fill="#0a5cd6" font-size="21" font-family="Poppins-SemiBold, Poppins" font-weight="600"><tspan x="-85" y="0">AlQuranClasses</tspan></text>
    <g id="logo_blue" transform="translate(202.212 14.406)">
      <g id="Group_284" data-name="Group 284" transform="translate(0)">
        <g id="Group_281" data-name="Group 281" transform="translate(0 0)">
          <path id="Path_181" data-name="Path 181" d="M567.709,193.566a1.153,1.153,0,0,0,1.631.036l3.9-3.725a1.184,1.184,0,0,0,.178-.219l.011.013,3.725,3.9a1.153,1.153,0,0,0,1.631.036l3.9-3.725a1.154,1.154,0,0,0,.036-1.631l-3.725-3.9a1.153,1.153,0,0,0-1.631-.036l-3.9,3.725a1.188,1.188,0,0,0-.178.219l-.011-.013-3.725-3.9a1.153,1.153,0,0,0-1.631-.036l-3.9,3.725a1.154,1.154,0,0,0-.036,1.631Z" transform="translate(-534.873 -183.994)" fill="#049518"/>
          <path id="Path_182" data-name="Path 182" d="M259.908,249.6c2.614-.145,3.195-.726,3.34-1.888s-1.016-4.212-2.759-3.63-1.161,4.212-1.161,4.212l.018.029a50.032,50.032,0,0,1-8.585-.175,7.979,7.979,0,0,0,.871,1.161A39.4,39.4,0,0,0,259.908,249.6Zm1.38-4.429c.581,0,.871.726.871,1.307,0,.539-.126,1.077-1.762,1.615a11.065,11.065,0,0,1-.126-1.47C260.271,245.9,260.706,245.173,261.288,245.173Z" transform="translate(-248.226 -238.974)" fill="#049518"/>
          <path id="Path_183" data-name="Path 183" d="M285.663,363.71a15.6,15.6,0,0,1-10.651,12.054c-8.417,2.841-13.251,1.336-17.374-1.641,10.945-11.93,7.661-28.708,6.12-30.961-1.888-2.759-5.083-3.049-7.7,2.324-1.77,3.638-1.476,8.207-1.1,10.78a.248.248,0,0,0,.493-.015c.73-8.588,3.984-9.064,5.473-8.658,1.6.436,6.39,5.518-1.161,15.684a35.495,35.495,0,0,1-6.692,6.959c-5.516-5.093-11.614-19.883-22.788-19.449s-9.875,12.634-9.439,17.572,4.865,23.6,27.084,12.852a34.243,34.243,0,0,0,5.493-3.3,43.4,43.4,0,0,0,5.471,4.971c3.776,2.614,14.087,4.5,21.348-2.469,4.814-4.622,5.8-12.116,5.914-16.643A.249.249,0,0,0,285.663,363.71Zm-52.329,12.053c-9.73-.871-14.522-17.136-4.212-17.136,10.126,0,18.711,13.026,19.016,13.493a.278.278,0,0,0,.018.025c.052.06.3.35.7.8A27.655,27.655,0,0,1,233.334,375.764Z" transform="translate(-220.563 -328.032)" fill="#049518"/>
        </g>
        <g id="Group_282" data-name="Group 282" transform="translate(0 0)">
          <path id="Path_184" data-name="Path 184" d="M567.709,193.566a1.153,1.153,0,0,0,1.631.036l3.9-3.725a1.184,1.184,0,0,0,.178-.219l.011.013,3.725,3.9a1.153,1.153,0,0,0,1.631.036l3.9-3.725a1.154,1.154,0,0,0,.036-1.631l-3.725-3.9a1.153,1.153,0,0,0-1.631-.036l-3.9,3.725a1.188,1.188,0,0,0-.178.219l-.011-.013-3.725-3.9a1.153,1.153,0,0,0-1.631-.036l-3.9,3.725a1.154,1.154,0,0,0-.036,1.631Z" transform="translate(-534.873 -183.994)" fill="#049518"/>
          <path id="Path_185" data-name="Path 185" d="M259.908,249.6c2.614-.145,3.195-.726,3.34-1.888s-1.016-4.212-2.759-3.63-1.161,4.212-1.161,4.212l.018.029a50.032,50.032,0,0,1-8.585-.175,7.979,7.979,0,0,0,.871,1.161A39.4,39.4,0,0,0,259.908,249.6Zm1.38-4.429c.581,0,.871.726.871,1.307,0,.539-.126,1.077-1.762,1.615a11.065,11.065,0,0,1-.126-1.47C260.271,245.9,260.706,245.173,261.288,245.173Z" transform="translate(-248.226 -238.974)" fill="#049518"/>
          <path id="Path_186" data-name="Path 186" d="M285.663,363.71a15.6,15.6,0,0,1-10.651,12.054c-8.417,2.841-13.251,1.336-17.374-1.641,10.945-11.93,7.661-28.708,6.12-30.961-1.888-2.759-5.083-3.049-7.7,2.324-1.77,3.638-1.476,8.207-1.1,10.78a.248.248,0,0,0,.493-.015c.73-8.588,3.984-9.064,5.473-8.658,1.6.436,6.39,5.518-1.161,15.684a35.495,35.495,0,0,1-6.692,6.959c-5.516-5.093-11.614-19.883-22.788-19.449s-9.875,12.634-9.439,17.572,4.865,23.6,27.084,12.852a34.243,34.243,0,0,0,5.493-3.3,43.4,43.4,0,0,0,5.471,4.971c3.776,2.614,14.087,4.5,21.348-2.469,4.814-4.622,5.8-12.116,5.914-16.643A.249.249,0,0,0,285.663,363.71Zm-52.329,12.053c-9.73-.871-14.522-17.136-4.212-17.136,10.126,0,18.711,13.026,19.016,13.493a.278.278,0,0,0,.018.025c.052.06.3.35.7.8A27.655,27.655,0,0,1,233.334,375.764Z" transform="translate(-220.563 -328.032)" fill="#049518"/>
        </g>
        <g id="Group_283" data-name="Group 283" transform="translate(0 0)">
          <path id="Path_187" data-name="Path 187" d="M567.709,193.566a1.153,1.153,0,0,0,1.631.036l3.9-3.725a1.184,1.184,0,0,0,.178-.219l.011.013,3.725,3.9a1.153,1.153,0,0,0,1.631.036l3.9-3.725a1.154,1.154,0,0,0,.036-1.631l-3.725-3.9a1.153,1.153,0,0,0-1.631-.036l-3.9,3.725a1.188,1.188,0,0,0-.178.219l-.011-.013-3.725-3.9a1.153,1.153,0,0,0-1.631-.036l-3.9,3.725a1.154,1.154,0,0,0-.036,1.631Z" transform="translate(-534.873 -183.994)" fill="#0a5cd6"/>
          <path id="Path_188" data-name="Path 188" d="M259.908,249.6c2.614-.145,3.195-.726,3.34-1.888s-1.016-4.212-2.759-3.63-1.161,4.212-1.161,4.212l.018.029a50.032,50.032,0,0,1-8.585-.175,7.979,7.979,0,0,0,.871,1.161A39.4,39.4,0,0,0,259.908,249.6Zm1.38-4.429c.581,0,.871.726.871,1.307,0,.539-.126,1.077-1.762,1.615a11.065,11.065,0,0,1-.126-1.47C260.271,245.9,260.706,245.173,261.288,245.173Z" transform="translate(-248.226 -238.974)" fill="#0a5cd6"/>
          <path id="Path_189" data-name="Path 189" d="M285.663,363.71a15.6,15.6,0,0,1-10.651,12.054c-8.417,2.841-13.251,1.336-17.374-1.641,10.945-11.93,7.661-28.708,6.12-30.961-1.888-2.759-5.083-3.049-7.7,2.324-1.77,3.638-1.476,8.207-1.1,10.78a.248.248,0,0,0,.493-.015c.73-8.588,3.984-9.064,5.473-8.658,1.6.436,6.39,5.518-1.161,15.684a35.495,35.495,0,0,1-6.692,6.959c-5.516-5.093-11.614-19.883-22.788-19.449s-9.875,12.634-9.439,17.572,4.865,23.6,27.084,12.852a34.243,34.243,0,0,0,5.493-3.3,43.4,43.4,0,0,0,5.471,4.971c3.776,2.614,14.087,4.5,21.348-2.469,4.814-4.622,5.8-12.116,5.914-16.643A.249.249,0,0,0,285.663,363.71Zm-52.329,12.053c-9.73-.871-14.522-17.136-4.212-17.136,10.126,0,18.711,13.026,19.016,13.493a.278.278,0,0,0,.018.025c.052.06.3.35.7.8A27.655,27.655,0,0,1,233.334,375.764Z" transform="translate(-220.563 -328.032)" fill="#0a5cd6"/>
        </g>
      </g>
    </g>
  </g>
</svg>
