<svg xmlns="http://www.w3.org/2000/svg" width="38.812" height="33.852" viewBox="0 0 38.812 33.852"><defs><style>.a{fill:#049518;}.b{fill:#0a5cd6;}</style></defs><g transform="translate(0 0)"><g transform="translate(0 0)"><path class="a" d="M566.058,189.658a.683.683,0,0,0,.965.021l2.3-2.2a.7.7,0,0,0,.105-.13l.006.007,2.2,2.3a.683.683,0,0,0,.965.021l2.3-2.2a.683.683,0,0,0,.021-.965l-2.2-2.3a.683.683,0,0,0-.965-.021l-2.3,2.2a.7.7,0,0,0-.105.13l-.006-.007-2.2-2.3a.683.683,0,0,0-.965-.021l-2.3,2.2a.683.683,0,0,0-.021.965Z" transform="translate(-546.628 -183.994)"/><path class="a" d="M256.173,247.319c1.547-.086,1.89-.429,1.976-1.117s-.6-2.492-1.633-2.148-.687,2.492-.687,2.492l.01.017a29.6,29.6,0,0,1-5.08-.1,4.721,4.721,0,0,0,.515.687A23.307,23.307,0,0,0,256.173,247.319Zm.816-2.621c.344,0,.515.43.515.774,0,.319-.074.637-1.043.956a6.551,6.551,0,0,1-.074-.87C256.388,245.128,256.645,244.7,256.989,244.7Z" transform="translate(-249.261 -241.03)"/><path class="a" d="M259.083,354.53a9.231,9.231,0,0,1-6.3,7.133c-4.98,1.681-7.841.79-10.281-.971,6.476-7.059,4.533-16.987,3.621-18.32-1.117-1.633-3.008-1.8-4.554,1.375a11.577,11.577,0,0,0-.652,6.378.147.147,0,0,0,.292-.009c.432-5.082,2.358-5.364,3.238-5.123.945.258,3.781,3.265-.687,9.28a21,21,0,0,1-3.96,4.118c-3.264-3.013-6.872-11.765-13.484-11.508s-5.843,7.476-5.585,10.4,2.878,13.963,16.026,7.6a20.264,20.264,0,0,0,3.25-1.953,25.679,25.679,0,0,0,3.237,2.941,10.793,10.793,0,0,0,12.632-1.461c2.849-2.735,3.431-7.169,3.5-9.848A.147.147,0,0,0,259.083,354.53Zm-30.964,7.132c-5.757-.515-8.593-10.14-2.492-10.14,5.992,0,11.072,7.708,11.252,7.984l.011.015c.031.036.178.207.412.473A16.364,16.364,0,0,1,228.12,361.663Z" transform="translate(-220.563 -333.419)"/><path class="a" d="M566.058,189.658a.683.683,0,0,0,.965.021l2.3-2.2a.7.7,0,0,0,.105-.13l.006.007,2.2,2.3a.683.683,0,0,0,.965.021l2.3-2.2a.683.683,0,0,0,.021-.965l-2.2-2.3a.683.683,0,0,0-.965-.021l-2.3,2.2a.7.7,0,0,0-.105.13l-.006-.007-2.2-2.3a.683.683,0,0,0-.965-.021l-2.3,2.2a.683.683,0,0,0-.021.965Z" transform="translate(-546.628 -183.994)"/><path class="a" d="M256.173,247.319c1.547-.086,1.89-.429,1.976-1.117s-.6-2.492-1.633-2.148-.687,2.492-.687,2.492l.01.017a29.6,29.6,0,0,1-5.08-.1,4.721,4.721,0,0,0,.515.687A23.307,23.307,0,0,0,256.173,247.319Zm.816-2.621c.344,0,.515.43.515.774,0,.319-.074.637-1.043.956a6.551,6.551,0,0,1-.074-.87C256.388,245.128,256.645,244.7,256.989,244.7Z" transform="translate(-249.261 -241.03)"/><path class="a" d="M259.083,354.53a9.231,9.231,0,0,1-6.3,7.133c-4.98,1.681-7.841.79-10.281-.971,6.476-7.059,4.533-16.987,3.621-18.32-1.117-1.633-3.008-1.8-4.554,1.375a11.577,11.577,0,0,0-.652,6.378.147.147,0,0,0,.292-.009c.432-5.082,2.358-5.364,3.238-5.123.945.258,3.781,3.265-.687,9.28a21,21,0,0,1-3.96,4.118c-3.264-3.013-6.872-11.765-13.484-11.508s-5.843,7.476-5.585,10.4,2.878,13.963,16.026,7.6a20.264,20.264,0,0,0,3.25-1.953,25.679,25.679,0,0,0,3.237,2.941,10.793,10.793,0,0,0,12.632-1.461c2.849-2.735,3.431-7.169,3.5-9.848A.147.147,0,0,0,259.083,354.53Zm-30.964,7.132c-5.757-.515-8.593-10.14-2.492-10.14,5.992,0,11.072,7.708,11.252,7.984l.011.015c.031.036.178.207.412.473A16.364,16.364,0,0,1,228.12,361.663Z" transform="translate(-220.563 -333.419)"/><path class="b" d="M566.058,189.658a.683.683,0,0,0,.965.021l2.3-2.2a.7.7,0,0,0,.105-.13l.006.007,2.2,2.3a.683.683,0,0,0,.965.021l2.3-2.2a.683.683,0,0,0,.021-.965l-2.2-2.3a.683.683,0,0,0-.965-.021l-2.3,2.2a.7.7,0,0,0-.105.13l-.006-.007-2.2-2.3a.683.683,0,0,0-.965-.021l-2.3,2.2a.683.683,0,0,0-.021.965Z" transform="translate(-546.628 -183.994)"/><path class="b" d="M256.173,247.319c1.547-.086,1.89-.429,1.976-1.117s-.6-2.492-1.633-2.148-.687,2.492-.687,2.492l.01.017a29.6,29.6,0,0,1-5.08-.1,4.721,4.721,0,0,0,.515.687A23.307,23.307,0,0,0,256.173,247.319Zm.816-2.621c.344,0,.515.43.515.774,0,.319-.074.637-1.043.956a6.551,6.551,0,0,1-.074-.87C256.388,245.128,256.645,244.7,256.989,244.7Z" transform="translate(-249.261 -241.03)"/><path class="b" d="M259.083,354.53a9.231,9.231,0,0,1-6.3,7.133c-4.98,1.681-7.841.79-10.281-.971,6.476-7.059,4.533-16.987,3.621-18.32-1.117-1.633-3.008-1.8-4.554,1.375a11.577,11.577,0,0,0-.652,6.378.147.147,0,0,0,.292-.009c.432-5.082,2.358-5.364,3.238-5.123.945.258,3.781,3.265-.687,9.28a21,21,0,0,1-3.96,4.118c-3.264-3.013-6.872-11.765-13.484-11.508s-5.843,7.476-5.585,10.4,2.878,13.963,16.026,7.6a20.264,20.264,0,0,0,3.25-1.953,25.679,25.679,0,0,0,3.237,2.941,10.793,10.793,0,0,0,12.632-1.461c2.849-2.735,3.431-7.169,3.5-9.848A.147.147,0,0,0,259.083,354.53Zm-30.964,7.132c-5.757-.515-8.593-10.14-2.492-10.14,5.992,0,11.072,7.708,11.252,7.984l.011.015c.031.036.178.207.412.473A16.364,16.364,0,0,1,228.12,361.663Z" transform="translate(-220.563 -333.419)"/></g></g></svg>