<svg xmlns="http://www.w3.org/2000/svg" width="20.852" height="18.863" viewBox="0 0 20.852 18.863">
  <g id="luggage" transform="translate(0 -20.6)">
    <g id="Group_4409" data-name="Group 4409" transform="translate(0 20.6)">
      <g id="Group_4408" data-name="Group 4408" transform="translate(0 0)">
        <path id="Path_28497" data-name="Path 28497" d="M19.944,24.21a3.08,3.08,0,0,0-2.182-.907h-3.34V22.241a1.6,1.6,0,0,0-.463-1.139l-.019-.019a1.62,1.62,0,0,0-1.158-.483H8.09a1.648,1.648,0,0,0-1.641,1.641V23.3H3.089A3.1,3.1,0,0,0,0,26.392v9.982a3.1,3.1,0,0,0,3.089,3.089H17.762a3.1,3.1,0,0,0,3.089-3.089V26.392A3.08,3.08,0,0,0,19.944,24.21ZM7.182,22.241H7.2a.859.859,0,0,1,.251-.618.893.893,0,0,1,.618-.251h4.672a.859.859,0,0,1,.618.251l.019.019a.847.847,0,0,1,.251.6V23.3h-.772v-.348a.957.957,0,0,0-.328-.714l-.019-.019a1.151,1.151,0,0,0-.772-.29H9.074a1.23,1.23,0,0,0-.772.29.986.986,0,0,0-.348.734V23.3H7.182Zm4.962.734V23.3H8.727v-.348A.238.238,0,0,1,8.8,22.8a.382.382,0,0,1,.27-.1h2.7a.461.461,0,0,1,.27.1l.019.019A.238.238,0,0,1,12.144,22.975Zm7.279,15.04a2.305,2.305,0,0,1-1.641.676H3.089a2.388,2.388,0,0,1-1.641-.676,2.305,2.305,0,0,1-.676-1.641V26.392a2.388,2.388,0,0,1,.676-1.641,2.305,2.305,0,0,1,1.641-.676H17.762a2.388,2.388,0,0,1,1.641.676,2.305,2.305,0,0,1,.676,1.641v9.982H20.1A2.388,2.388,0,0,1,19.423,38.015Z" transform="translate(0 -20.6)"/>
      </g>
    </g>
    <g id="Group_4411" data-name="Group 4411" transform="translate(4.923 25.929)">
      <g id="Group_4410" data-name="Group 4410" transform="translate(0 0)">
        <path id="Path_28498" data-name="Path 28498" d="M112.851,137.854l-.792-.792a.4.4,0,0,0-.386-.1l-1.448.444-1.718-1.815,3.765-2.085a.4.4,0,0,0,.116-.077.373.373,0,0,0,0-.541l-1.023-1.081a.4.4,0,0,0-.386-.1l-4.73,1.448-1.6-1.7-.019-.039a1.488,1.488,0,0,0-1.062-.425,1.52,1.52,0,0,0-1.062.425l-.039.039-.039.039a1.574,1.574,0,0,0-.425,1.062,1.488,1.488,0,0,0,.425,1.062l.039.039,1.7,1.6L102.734,140a.362.362,0,0,0,.1.386l1.043,1.043c.019.019.058.039.077.058a.38.38,0,0,0,.521-.154l2.1-3.8,1.815,1.718-.425,1.429a.362.362,0,0,0,.1.386l.811.811c.019.019.058.039.077.058a.38.38,0,0,0,.521-.154l1.023-1.834v-.019l.135-.29.27-.135c.019,0,.019-.019.039-.019l1.8-1a.4.4,0,0,0,.116-.077A.373.373,0,0,0,112.851,137.854Zm-2.259.965-.386.193a.379.379,0,0,0-.174.174l-.193.386-.772,1.39-.29-.29.444-1.448a.391.391,0,0,0-.116-.405l-2.336-2.2a.373.373,0,0,0-.541.019.422.422,0,0,0-.058.1l-2.1,3.746-.521-.521,1.448-4.73a.391.391,0,0,0-.116-.405l-1.853-1.757-.019-.019a.736.736,0,0,1-.212-.5A.83.83,0,0,1,103,132l.019-.019.019-.019a.83.83,0,0,1,.541-.212.684.684,0,0,1,.5.193l.019.019,1.776,1.873a.33.33,0,0,0,.386.1l4.75-1.429.521.521-3.8,2.124a.38.38,0,0,0-.154.521c.019.019.039.058.058.077l2.22,2.355a.33.33,0,0,0,.386.1l1.448-.444.29.29Z" transform="translate(-102 -131)"/>
      </g>
    </g>
  </g>
</svg>
