<svg xmlns="http://www.w3.org/2000/svg" width="35.274" height="36.535" viewBox="0 0 35.274 36.535"><defs><style>.a,.c,.d{fill:none;}.a,.c{stroke:#fff;stroke-linecap:round;stroke-linejoin:round;}.a{stroke-width:1.5px;}.b{fill:#f45e76;}.c{stroke-width:2px;}.d{opacity:0;}.e{fill:#fff;font-size:14px;font-family:Poppins-Regular, Poppins;}</style></defs><g transform="translate(0 2)"><path class="a" d="M23.023,9.209v3.453q0,6.907-6.907,6.907h-.576a1.167,1.167,0,0,0-.921.46l-1.727,2.3a1.636,1.636,0,0,1-2.763,0L8.4,20.03a1.3,1.3,0,0,0-.921-.46H6.907C2.3,19.57,0,18.418,0,12.663V6.907Q0,0,6.907,0h6.907" transform="translate(2.302 9.209)"/><path class="b" d="M18,9A9,9,0,1,1,9,0,9,9,0,0,1,18,9Z" transform="translate(17.274 -1.093)"/><path class="c" d="M.495.5H.5" transform="translate(17.92 19.07)"/><path class="c" d="M.495.5H.5" transform="translate(13.314 19.07)"/><path class="c" d="M.495.5H.5" transform="translate(8.708 19.07)"/><path class="d" d="M0,0H27.628V27.628H0Z" transform="translate(0 6.907)"/><text class="e" transform="translate(22 13)"><tspan x="0" y="0">3</tspan></text></g></svg>