<svg xmlns="http://www.w3.org/2000/svg" width="34.939" height="38.682" viewBox="0 0 34.939 38.682">
  <g id="pdf_1_" data-name="pdf (1)" transform="translate(-24.774)">
    <path id="Path_28464" data-name="Path 28464" d="M29.141,269.25H27.894a3.12,3.12,0,0,1-3.12-3.12,1.872,1.872,0,0,1,1.872-1.872h2.5v4.991Z" transform="translate(0 -244.294)" fill="#bd4150"/>
    <path id="Path_28465" data-name="Path 28465" d="M106.06,0H82.976l-.643,1.248v36.83h29.342l1.248-.643V6.863Z" transform="translate(-53.21 0)" fill="#eceaec"/>
    <path id="Path_28466" data-name="Path 28466" d="M75.571,35.563V0a1.248,1.248,0,0,0-1.248,1.248V37.435a1.248,1.248,0,0,0,1.248,1.248h28.7a1.248,1.248,0,0,0,1.248-1.248H77.443A1.872,1.872,0,0,1,75.571,35.563Z" transform="translate(-45.805 0)" fill="#dad8db"/>
    <path id="Path_28467" data-name="Path 28467" d="M403.25,6.756a1.248,1.248,0,0,0-.365-.882L397.376.365A1.248,1.248,0,0,0,396.494,0h-.107V6.239a.624.624,0,0,0,.624.624h6.239Z" transform="translate(-343.537 0)" fill="#dad8db"/>
    <path id="Path_28468" data-name="Path 28468" d="M53.9,312.5H34.558a1.868,1.868,0,0,1-.624-.107l-.6,1v7.883a1.872,1.872,0,0,0,1.872,1.872H53.9l1.248-.668V313.75A1.248,1.248,0,0,0,53.9,312.5Z" transform="translate(-7.912 -288.794)" fill="#e15f78"/>
    <path id="Path_28469" data-name="Path 28469" d="M26.022,290.8a1.877,1.877,0,0,1-1.248-1.765v11.23a1.872,1.872,0,0,0,1.872,1.872H45.987a1.248,1.248,0,0,0,1.248-1.248H27.894a1.872,1.872,0,0,1-1.872-1.872Z" transform="translate(0 -267.195)" fill="#db4655"/>
    <g id="Group_4374" data-name="Group 4374" transform="translate(29.123 26.204)">
      <path id="Path_28470" data-name="Path 28470" d="M230.2,349.511h-1.225v-1.183h1.384a.624.624,0,1,0,0-1.248H228.35a.624.624,0,0,0-.624.624v4.955a.624.624,0,1,0,1.248,0v-1.9H230.2a.624.624,0,0,0,0-1.248Z" transform="translate(-216.742 -347.063)" fill="#fff"/>
      <path id="Path_28471" data-name="Path 28471" d="M84.352,346.839h-1.39a.623.623,0,0,0-.624.624h0v4.991a.624.624,0,0,0,1.248,0v-1.547l.766,0a2.033,2.033,0,1,0,0-4.065Zm0,2.817-.76,0c0-.288,0-1.572,0-1.572h.764a.785.785,0,1,1,0,1.569Z" transform="translate(-82.338 -346.839)" fill="#fff"/>
      <path id="Path_28472" data-name="Path 28472" d="M153.826,347.815h-1.371a.623.623,0,0,0-.624.625l0,2.415c0,.674.006,2.43.006,2.43a.624.624,0,0,0,.624.622h0s1.017,0,1.41-.011a2.753,2.753,0,0,0,2.529-3.035C156.407,349.039,155.37,347.815,153.826,347.815Zm.029,4.833c-.179,0-.487.006-.769.007,0-.571,0-1.388,0-1.8l0-1.793h.746c1.268,0,1.332,1.5,1.332,1.8C155.159,351.739,154.756,352.632,153.856,352.648Z" transform="translate(-146.581 -347.741)" fill="#fff"/>
    </g>
    <path id="Path_28473" data-name="Path 28473" d="M179.653,91.722A1.445,1.445,0,0,1,178.431,91a1.667,1.667,0,0,1,.327-2.179,9.613,9.613,0,0,1,3.679-1.868,32.091,32.091,0,0,0,1.523-3.35c.288-.739.521-1.406.707-2a7.228,7.228,0,0,1-1.181-3.821,1.594,1.594,0,0,1,1.849-1.388c.3.016,1.031.176,1.207,1.295A10.159,10.159,0,0,1,186,81.5a23.731,23.731,0,0,0,3.176,4.175,7.8,7.8,0,0,1,3.943.467,1.251,1.251,0,0,1,.608,1.523,1.667,1.667,0,0,1-2.1,1.209,7.229,7.229,0,0,1-2.912-1.931,29.064,29.064,0,0,0-5.4,1c-1.038,1.862-2.159,3.312-3.1,3.672A1.559,1.559,0,0,1,179.653,91.722Zm-.175-1.4c.1.16.161.157.188.154.4-.04,1.059-.726,1.814-1.885a8.446,8.446,0,0,0-1.324.7c-.944.625-.744.934-.679,1.036Zm10.992-3.464a4.064,4.064,0,0,0,1.443.8c.324.075.49.037.628-.383C192.356,86.993,191.573,86.859,190.469,86.857Zm-4.955-3.847a34.026,34.026,0,0,1-1.446,3.478,30.339,30.339,0,0,1,3.579-.672A24.718,24.718,0,0,1,185.514,83.009Zm-.3-5.4c-.443,0-.466.166-.492.341a3.911,3.911,0,0,0,.417,1.872c.282-1.347.225-2.059.088-2.214Z" transform="translate(-141.797 -70.615)" fill="#e15f78"/>
  </g>
</svg>
