<svg xmlns="http://www.w3.org/2000/svg" width="24.392" height="24.438" viewBox="0 0 24.392 24.438">
  <path id="phone_icon_contactus" d="M18.276,6.171a5.839,5.839,0,0,1,4.613,4.613M18.276,1.5a10.51,10.51,0,0,1,9.283,9.272M26.392,20.09v3.5a2.335,2.335,0,0,1-2.546,2.335,23.109,23.109,0,0,1-10.077-3.585,22.771,22.771,0,0,1-7.006-7.006A23.109,23.109,0,0,1,3.177,5.213,2.335,2.335,0,0,1,5.5,2.668H9A2.335,2.335,0,0,1,11.34,4.676a14.994,14.994,0,0,0,.817,3.281,2.335,2.335,0,0,1-.525,2.464L10.149,11.9a18.684,18.684,0,0,0,7.006,7.006l1.483-1.483A2.335,2.335,0,0,1,21.1,16.9a14.994,14.994,0,0,0,3.281.817A2.335,2.335,0,0,1,26.392,20.09Z" transform="translate(-3.168 -1.5)" fill="#fff"/>
</svg>
