<svg xmlns="http://www.w3.org/2000/svg" width="27.95" height="24.444" viewBox="0 0 27.95 24.444">
  <g id="presentation" transform="translate(0.001 0)">
    <path id="Path_28521" data-name="Path 28521" d="M25.376,0H13.1a2.576,2.576,0,0,0-2.573,2.573V10.45L8.244,9.316c-.077-.038-.155-.075-.234-.109a3.888,3.888,0,1,0-5.365.238A5.182,5.182,0,0,0,0,13.975v2.631a2.577,2.577,0,0,0,1.754,2.439v4.577a.819.819,0,0,0,.819.819H7.835a.819.819,0,0,0,.819-.819v-9.2l2.622,1.311a2.246,2.246,0,0,0,2.98-.939H17.19l-3.109,8.549a.819.819,0,0,0,1.539.56l3.312-9.109h.574L22.853,23.9a.819.819,0,0,0,1.537-.565l-3.139-8.547h4.124a2.573,2.573,0,0,0,2.573-2.573V2.573A2.573,2.573,0,0,0,25.376,0ZM2.953,6.52A2.251,2.251,0,1,1,5.2,8.77,2.253,2.253,0,0,1,2.953,6.52Zm9.9,7.4-.006.018a.605.605,0,0,1-.841.332L8.2,12.365a.819.819,0,0,0-1.185.732V22.8H3.391V18.36a.819.819,0,0,0-.819-.819.936.936,0,0,1-.935-.935V13.975A3.567,3.567,0,0,1,5.2,10.408h.724a3.568,3.568,0,0,1,1.587.373l5.1,2.535a.491.491,0,0,1,.245.6Zm13.456-1.7a.929.929,0,0,1-.274.661.941.941,0,0,1-.662.274H14.433l0-.013,2.032-4.064A.819.819,0,1,0,15,8.346l-1.733,3.466-1.1-.548V2.573a.936.936,0,0,1,.935-.935H25.376a.941.941,0,0,1,.662.274.928.928,0,0,1,.273.661Zm0,0"/>
    <path id="Path_28522" data-name="Path 28522" d="M266.656,64.266h-8.771a.819.819,0,1,0,0,1.638h8.771a.819.819,0,0,0,0-1.638Zm0,0" transform="translate(-243.034 -60.758)"/>
    <path id="Path_28523" data-name="Path 28523" d="M342.6,120.5h-4.385a.819.819,0,1,0,0,1.638H342.6a.819.819,0,1,0,0-1.638Zm0,0" transform="translate(-318.98 -113.922)"/>
    <path id="Path_28524" data-name="Path 28524" d="M342.6,176.734h-4.385a.819.819,0,1,0,0,1.638H342.6a.819.819,0,1,0,0-1.638Zm0,0" transform="translate(-318.98 -167.086)"/>
  </g>
</svg>
