<svg xmlns="http://www.w3.org/2000/svg" width="47.1" height="47.1" viewBox="0 0 47.1 47.1"><defs><style>.a{fill:rgba(55,101,159,0.52);}.b{fill:#f3f3f3;}</style></defs><path class="a" d="M23.55,0A23.547,23.547,0,1,0,47.1,23.55,23.547,23.547,0,0,0,23.55,0Z"/><path class="b" d="M114.972,78.6a34.471,34.471,0,0,0-5.776-3.5,5.963,5.963,0,0,1-3.4-6.249.638.638,0,0,1,.019-.121s5.424-3.672,4.673-7.25a3.568,3.568,0,0,0,.417-.009,2.108,2.108,0,0,0,.176-4.163c-.019,0-.046-.009-.065-.009l-.074-.389c.723-2.531,2.485-10.2-2.846-9.457,0,0-3.829-6.332-11.923-3.282s-5.989,10.3-5.989,10.3l1,2.893a2.107,2.107,0,0,0,.343,4.117,3.735,3.735,0,0,0,.426.009c-.76,3.579,4.664,7.25,4.664,7.25.009.046.009.083.019.121a5.988,5.988,0,0,1-3.4,6.249,34.707,34.707,0,0,0-5.776,3.5A7.449,7.449,0,0,0,85.6,80.525a23.579,23.579,0,0,0,31.217-.019A7.371,7.371,0,0,0,114.972,78.6Z" transform="translate(-77.664 -39.323)"/></svg>