<svg xmlns="http://www.w3.org/2000/svg" width="19.278" height="19.278" viewBox="0 0 19.278 19.278">
  <path id="search" d="M9.338,13.555a.753.753,0,0,1,0,1.506H8.284a.753.753,0,1,1,0-1.506Zm6.175-4.029a.753.753,0,0,0-.753-.753H8.284a.753.753,0,1,0,0,1.506H14.76A.753.753,0,0,0,15.513,9.526ZM8.284,5.76H14.76a.753.753,0,1,0,0-1.506H8.284a.753.753,0,1,0,0,1.506ZM5.271,13.555H4.518a.753.753,0,1,0,0,1.506h.753a.753.753,0,1,0,0-1.506Zm0-4.782H4.518a.753.753,0,0,0,0,1.506h.753a.753.753,0,1,0,0-1.506Zm0-4.518H4.518a.753.753,0,1,0,0,1.506h.753a.753.753,0,1,0,0-1.506ZM19.058,17.992a.753.753,0,0,1-1.065,1.065l-1.274-1.274a3.393,3.393,0,1,1,1.091-1.039Zm-4.072-1.237A1.883,1.883,0,1,0,13.1,14.872,1.885,1.885,0,0,0,14.986,16.755ZM16.266,0H3.012A3.016,3.016,0,0,0,0,3.012V16.266a3.016,3.016,0,0,0,3.012,3.012h7.756a.753.753,0,0,0,0-1.506H3.012a1.508,1.508,0,0,1-1.506-1.506V3.012A1.508,1.508,0,0,1,3.012,1.506H16.266a1.508,1.508,0,0,1,1.506,1.506v7.455a.753.753,0,1,0,1.506,0V3.012A3.016,3.016,0,0,0,16.266,0Zm0,0" transform="translate(0 0)"/>
</svg>
