<svg xmlns="http://www.w3.org/2000/svg" width="20.745" height="20.745" viewBox="0 0 20.745 20.745">
  <path id="twitter" d="M10.373,0A10.373,10.373,0,1,0,20.745,10.373,10.374,10.374,0,0,0,10.373,0Zm4.736,8.088q.007.153.007.308a6.728,6.728,0,0,1-6.774,6.774h0A6.739,6.739,0,0,1,4.692,14.1a4.842,4.842,0,0,0,.568.033,4.777,4.777,0,0,0,2.957-1.019A2.383,2.383,0,0,1,5.993,11.46a2.373,2.373,0,0,0,1.075-.041,2.381,2.381,0,0,1-1.91-2.334c0-.011,0-.02,0-.03a2.364,2.364,0,0,0,1.078.3A2.383,2.383,0,0,1,5.5,6.174a6.759,6.759,0,0,0,4.907,2.488,2.382,2.382,0,0,1,4.057-2.171,4.775,4.775,0,0,0,1.512-.578A2.39,2.39,0,0,1,14.929,7.23,4.748,4.748,0,0,0,16.3,6.855a4.838,4.838,0,0,1-1.188,1.233Zm0,0" fill="#fff"/>
</svg>
