<svg xmlns="http://www.w3.org/2000/svg" width="48.229" height="48.229" viewBox="0 0 48.229 48.229"><defs><style>.a{fill:#cccaca;}.b{fill:#f3f3f3;}</style></defs><path class="a" d="M24.114,0A24.112,24.112,0,1,0,48.229,24.114,24.112,24.112,0,0,0,24.114,0Z"/><path class="b" d="M115.676,79.442a35.3,35.3,0,0,0-5.915-3.579,6.106,6.106,0,0,1-3.484-6.4.653.653,0,0,1,.019-.123s5.554-3.76,4.785-7.424a3.655,3.655,0,0,0,.427-.009,2.159,2.159,0,0,0,.18-4.263c-.019,0-.047-.009-.066-.009l-.076-.4c.741-2.592,2.544-10.443-2.915-9.684,0,0-3.921-6.484-12.209-3.361S90.29,54.739,90.29,54.739L91.315,57.7a2.157,2.157,0,0,0,.351,4.215,3.824,3.824,0,0,0,.437.009c-.778,3.665,4.775,7.424,4.775,7.424.01.047.01.085.019.123a6.131,6.131,0,0,1-3.484,6.4A35.539,35.539,0,0,0,87.5,79.451a7.627,7.627,0,0,0-1.9,1.965,24.144,24.144,0,0,0,31.966-.019A7.547,7.547,0,0,0,115.676,79.442Z" transform="translate(-77.473 -39.226)"/></svg>