<svg xmlns="http://www.w3.org/2000/svg" width="19.628" height="23.919" viewBox="0 0 19.628 23.919">
  <g id="user_7_" data-name="user (7)" transform="translate(-43.129 0.375)">
    <path id="Path_29926" data-name="Path 29926" d="M97.713,8.656a4.356,4.356,0,0,0,4.374-4.328,4.375,4.375,0,0,0-8.749,0A4.356,4.356,0,0,0,97.713,8.656Zm0-7.864A3.563,3.563,0,0,1,101.3,4.328a3.583,3.583,0,0,1-7.165,0A3.563,3.563,0,0,1,97.713.792Z" transform="translate(-47.368)" stroke="#000" stroke-width="0.75"/>
    <path id="Path_29927" data-name="Path 29927" d="M196.387,259.089h-9.027a1.4,1.4,0,0,1-1.22-2.065l4.513-8.112a1.408,1.408,0,0,1,2.439,0l4.513,8.112A1.4,1.4,0,0,1,196.387,259.089Zm-5.041-9.792-4.513,8.112a.6.6,0,0,0,.527.888h9.027a.6.6,0,0,0,.527-.888L192.4,249.3A.6.6,0,0,0,191.347,249.3Z" transform="translate(-135.413 -235.92)" stroke="#000" stroke-width="0.75"/>
    <path id="Path_29928" data-name="Path 29928" d="M48.1,199.79l1.933,2.419a.4.4,0,0,0,.619,0l1.933-2.419a3.917,3.917,0,0,1,2.019.671.4.4,0,1,0,.444-.656,4.709,4.709,0,0,0-2.65-.811.4.4,0,0,0-.309.149l-1.746,2.185L48.6,199.143a.447.447,0,0,0-.334-.149,4.767,4.767,0,0,0-4.762,4.743v4.157a1.447,1.447,0,0,0,1.454,1.4h4.923a.4.4,0,1,0,0-.792H47.564v-2.24a.4.4,0,1,0-.792,0v2.24H44.958a.611.611,0,0,1-.612-.6v-4.157A3.953,3.953,0,0,1,48.1,199.79Z" transform="translate(0 -189.143)" stroke="#000" stroke-width="0.75"/>
    <path id="Path_29929" data-name="Path 29929" d="M296.5,323h.721v2.884H296.5Z" transform="translate(-240.438 -307.009)" stroke="#000" stroke-width="0.75"/>
    <path id="Path_29930" data-name="Path 29930" d="M296.5,406h.792v1.04H296.5Z" transform="translate(-240.474 -385.9)" stroke="#000" stroke-width="0.75"/>
  </g>
</svg>
