<svg xmlns="http://www.w3.org/2000/svg" width="19.426" height="14.315" viewBox="0 0 19.426 14.315">
  <g id="video-call" transform="translate(0 -80)">
    <g id="Group_4368" data-name="Group 4368" transform="translate(0 80)">
      <path id="Path_28444" data-name="Path 28444" d="M18.819,81.3H17a.587.587,0,0,0-.431.189L15.535,82.6h-.965v-.651A1.89,1.89,0,0,0,12.748,80H1.821A1.89,1.89,0,0,0,0,81.952V92.363a1.89,1.89,0,0,0,1.821,1.952H12.748a1.89,1.89,0,0,0,1.821-1.952v-.651h.965l1.038,1.113a.587.587,0,0,0,.425.189h1.821a.63.63,0,0,0,.607-.651V81.952A.63.63,0,0,0,18.819,81.3Zm-.607,10.411h-.965L16.208,90.6a.587.587,0,0,0-.425-.189H13.962a.63.63,0,0,0-.607.651v1.3a.63.63,0,0,1-.607.651H1.821a.63.63,0,0,1-.607-.651V81.952a.63.63,0,0,1,.607-.651H12.748a.63.63,0,0,1,.607.651v6.507h1.214V83.9h1.214a.587.587,0,0,0,.431-.189L17.246,82.6h.965Z" transform="translate(0 -80)"/>
    </g>
  </g>
</svg>
