<svg xmlns="http://www.w3.org/2000/svg" width="41.531" height="41.531" viewBox="0 0 41.531 41.531">
  <g id="video-call_1_" data-name="video-call (1)" transform="translate(-5.553 -5.553)">
    <path id="Path_28599" data-name="Path 28599" d="M26.319,5.553A20.766,20.766,0,1,0,47.084,26.319,20.766,20.766,0,0,0,26.319,5.553Zm0,40.288A19.522,19.522,0,1,1,45.841,26.319,19.522,19.522,0,0,1,26.319,45.841Z" transform="translate(0 0)"/>
    <path id="Path_28600" data-name="Path 28600" d="M51.007,44.637l-7.017,2.906V45.666A1.689,1.689,0,0,0,42.3,43.978H28.854a1.689,1.689,0,0,0-1.688,1.688V56.518a1.689,1.689,0,0,0,1.688,1.688H42.3a1.689,1.689,0,0,0,1.688-1.688V54.641l7.016,2.9a1.684,1.684,0,0,0,2.332-1.558V46.2a1.686,1.686,0,0,0-2.331-1.559ZM42.3,56.962H28.854a.444.444,0,0,1-.444-.444V45.666a.444.444,0,0,1,.444-.444H42.3a.444.444,0,0,1,.444.444V56.518a.444.444,0,0,1-.444.444Zm9.792-.974a.442.442,0,0,1-.611.41l-7.492-3.1V48.889l7.494-3.1a.442.442,0,0,1,.61.41Z" transform="translate(-13.934 -24.773)"/>
  </g>
</svg>
