<svg xmlns="http://www.w3.org/2000/svg" width="27.627" height="27.628" viewBox="0 0 27.627 27.628">
  <g id="vuesax_linear_message-notif" data-name="vuesax/linear/message-notif" transform="translate(-108 -250.907)">
    <path id="Vector" d="M23.023,9.209v3.453q0,6.907-6.907,6.907h-.576a1.167,1.167,0,0,0-.921.46l-1.727,2.3a1.636,1.636,0,0,1-2.763,0L8.4,20.03a1.3,1.3,0,0,0-.921-.46H6.907C2.3,19.57,0,18.418,0,12.663V6.907Q0,0,6.907,0h6.907" transform="translate(110.303 253.21)" fill="none" stroke="#000" stroke-linecap="round" stroke-linejoin="round" stroke-width="1.5"/>
    <path id="Vector-2" data-name="Vector" d="M.495.5H.5" transform="translate(125.92 263.07)" fill="none" stroke="#000" stroke-linecap="round" stroke-linejoin="round" stroke-width="2"/>
    <path id="Vector-3" data-name="Vector" d="M.495.5H.5" transform="translate(121.314 263.07)" fill="none" stroke="#000" stroke-linecap="round" stroke-linejoin="round" stroke-width="2"/>
    <path id="Vector-4" data-name="Vector" d="M.495.5H.5" transform="translate(116.709 263.07)" fill="none" stroke="#000" stroke-linecap="round" stroke-linejoin="round" stroke-width="2"/>
    <path id="Vector-5" data-name="Vector" d="M0,0H27.628V27.628H0Z" transform="translate(108 250.907)" fill="none" opacity="0"/>
  </g>
</svg>
