<svg xmlns="http://www.w3.org/2000/svg" width="18.684" height="18.684" viewBox="0 0 18.684 18.684">
  <g id="whatsapp" transform="translate(0 0)">
    <path id="Path_11" data-name="Path 11" d="M14.953,12.545l-.007.058c-1.712-.853-1.891-.967-2.112-.635-.153.23-.6.75-.735.9s-.272.163-.5.058a6.318,6.318,0,0,1-1.871-1.156,7.063,7.063,0,0,1-1.292-1.611c-.228-.394.249-.45.684-1.272A.428.428,0,0,0,9.1,8.484c-.058-.117-.523-1.261-.718-1.717s-.379-.4-.523-.4a1.159,1.159,0,0,0-1.065.268c-1.256,1.381-.94,2.806.135,4.321,2.113,2.765,3.238,3.274,5.3,3.981a3.221,3.221,0,0,0,1.464.094,2.4,2.4,0,0,0,1.569-1.11,1.927,1.927,0,0,0,.14-1.109C15.339,12.708,15.186,12.65,14.953,12.545Z" transform="translate(-1.324 -1.407)" fill="#fff"/>
    <path id="Path_12" data-name="Path 12" d="M15.975,2.685A9.344,9.344,0,0,0,.079,9.258,9.214,9.214,0,0,0,1.32,13.887L0,18.684,4.932,17.4A9.319,9.319,0,0,0,18.684,9.263a9.182,9.182,0,0,0-2.721-6.548Zm1.154,6.553a7.751,7.751,0,0,1-11.687,6.62l-.28-.167-2.919.759.782-2.838-.186-.292A7.721,7.721,0,0,1,14.864,3.8a7.62,7.62,0,0,1,2.265,5.442Z" transform="translate(0 0)" fill="#fff"/>
  </g>
</svg>
