<svg xmlns="http://www.w3.org/2000/svg" width="34" height="32.589" viewBox="0 0 34 32.589">
  <g id="word" transform="translate(0 -10.626)">
    <g id="Group_4378" data-name="Group 4378" transform="translate(0 10.626)">
      <path id="Path_28475" data-name="Path 28475" d="M19.567,10.784a.708.708,0,0,0-.6-.142L.549,14.893a.708.708,0,0,0-.55.7V39.673a.708.708,0,0,0,.6.7l18.417,2.833a.708.708,0,0,0,.816-.7V11.34A.708.708,0,0,0,19.567,10.784Z" transform="translate(0 -10.626)" fill="#1565c0"/>
      <path id="Path_28476" data-name="Path 28476" d="M292.208,80.294H278.041a.708.708,0,1,1,0-1.417H291.5V54.794H278.041a.708.708,0,1,1,0-1.417h14.167a.708.708,0,0,1,.708.708v25.5A.708.708,0,0,1,292.208,80.294Z" transform="translate(-258.916 -50.538)" fill="#1565c0"/>
    </g>
    <path id="Path_28477" data-name="Path 28477" d="M51.782,192.438a.708.708,0,0,1-.68-.513l-2.153-7.534L46.8,191.925a.737.737,0,0,1-1.361,0L42.6,182.008a.708.708,0,0,1,1.35-.429c0,.013.008.026.011.04l2.153,7.533,2.153-7.534a.737.737,0,0,1,1.361,0l2.152,7.534,2.153-7.532a.7.7,0,0,1,.86-.49l.016,0a.708.708,0,0,1,.486.876l-2.833,9.917A.708.708,0,0,1,51.782,192.438Z" transform="translate(-39.741 -159.14)" fill="#fafafa"/>
    <g id="Group_4379" data-name="Group 4379" transform="translate(18.416 17.715)">
      <path id="Path_28478" data-name="Path 28478" d="M289.375,118.793H278.041a.708.708,0,1,1,0-1.417h11.333a.708.708,0,1,1,0,1.417Z" transform="translate(-277.333 -117.376)" fill="#1565c0"/>
      <path id="Path_28479" data-name="Path 28479" d="M289.375,182.793H278.041a.708.708,0,1,1,0-1.417h11.333a.708.708,0,1,1,0,1.417Z" transform="translate(-277.333 -177.126)" fill="#1565c0"/>
      <path id="Path_28480" data-name="Path 28480" d="M289.375,246.793H278.041a.708.708,0,1,1,0-1.417h11.333a.708.708,0,1,1,0,1.417Z" transform="translate(-277.333 -236.876)" fill="#1565c0"/>
      <path id="Path_28481" data-name="Path 28481" d="M289.375,310.793H278.041a.708.708,0,1,1,0-1.417h11.333a.708.708,0,1,1,0,1.417Z" transform="translate(-277.333 -296.626)" fill="#1565c0"/>
      <path id="Path_28482" data-name="Path 28482" d="M289.375,374.793H278.041a.708.708,0,1,1,0-1.417h11.333a.708.708,0,1,1,0,1.417Z" transform="translate(-277.333 -356.376)" fill="#1565c0"/>
    </g>
  </g>
</svg>
