<?xml version="1.0" standalone="no"?>
<!DOCTYPE svg PUBLIC "-//W3C//DTD SVG 20010904//EN"
 "http://www.w3.org/TR/2001/REC-SVG-20010904/DTD/svg10.dtd">
<svg version="1.0" xmlns="http://www.w3.org/2000/svg"
 width="1016.000000pt" height="1016.000000pt" viewBox="0 0 1016.000000 1016.000000"
 preserveAspectRatio="xMidYMid meet">
<metadata>
Created by potrace 1.14, written by Peter Selinger 2001-2017
</metadata>
<g transform="translate(0.000000,1016.000000) scale(0.100000,-0.100000)"
fill="#000000" stroke="none">
<path d="M5185 9503 c-27 -7 -65 -37 -155 -124 -41 -39 -146 -140 -233 -223
-279 -267 -303 -291 -320 -318 -10 -16 -16 -28 -14 -28 2 0 1 -20 -3 -45 -4
-25 -3 -48 2 -51 4 -3 6 -10 3 -15 -4 -5 -1 -9 5 -9 6 0 9 -4 5 -10 -5 -8 27
-45 200 -226 33 -34 130 -135 215 -225 203 -212 219 -228 259 -245 78 -33 143
-11 240 83 41 40 76 73 77 73 2 0 174 165 382 366 l125 121 29 -31 c35 -37
345 -361 408 -427 25 -25 70 -72 100 -104 92 -96 166 -118 248 -72 22 12 121
99 218 192 97 94 205 196 238 228 236 226 246 239 246 314 -1 59 -28 104 -119
200 -480 505 -528 553 -567 569 -50 21 -113 17 -156 -9 -20 -12 -112 -94 -204
-182 -92 -88 -188 -180 -213 -204 -25 -24 -93 -89 -150 -144 l-103 -101 -115
119 c-63 66 -187 196 -276 289 -209 218 -206 216 -244 232 -32 14 -88 17 -128
7z"/>
<path d="M1872 8710 c-68 -37 -129 -129 -147 -221 -3 -19 -8 -45 -11 -59 -8
-39 -10 -249 -4 -302 4 -26 4 -52 0 -58 -20 -33 -743 -30 -1120 4 -209 19
-204 19 -189 -3 8 -11 28 -39 44 -63 17 -23 44 -57 61 -74 32 -32 40 -34 209
-50 17 -1 53 -5 80 -8 170 -18 259 -21 605 -19 350 1 434 4 540 17 166 20 261
55 324 119 61 62 81 209 46 332 -12 39 -22 75 -23 80 -1 6 -6 16 -10 22 -5 7
-10 22 -12 33 -6 30 -93 161 -128 194 -68 61 -85 68 -172 71 -42 2 -70 -2 -93
-15z m213 -184 c20 -13 55 -72 59 -100 1 -6 4 -15 7 -21 9 -16 3 -108 -9 -137
-17 -41 -68 -85 -140 -120 -36 -18 -70 -33 -76 -34 -6 -1 -17 -3 -25 -5 -19
-6 -24 28 -25 176 -1 119 1 133 22 169 54 90 120 116 187 72z"/>
<path d="M6110 7455 c-65 -18 -138 -51 -162 -73 -10 -8 -18 -13 -18 -9 0 8
-59 -42 -125 -109 -72 -71 -136 -154 -191 -244 -21 -36 -42 -66 -46 -68 -5 -2
-8 -12 -8 -22 0 -10 -5 -22 -10 -25 -6 -4 -20 -28 -32 -53 -12 -26 -24 -49
-27 -52 -3 -3 -7 -12 -9 -20 -2 -8 -14 -37 -26 -65 -13 -27 -38 -97 -56 -155
-18 -58 -35 -112 -38 -120 -3 -8 -6 -22 -7 -30 -1 -8 -8 -42 -15 -75 -7 -33
-14 -71 -16 -85 -2 -14 -6 -38 -9 -55 -9 -56 -22 -189 -30 -305 -2 -30 -4 -57
-5 -60 -1 -3 -2 -8 -1 -12 0 -4 3 -88 6 -185 3 -98 8 -198 10 -223 7 -93 17
-186 22 -205 2 -11 6 -35 8 -53 4 -41 7 -44 41 -44 32 0 43 15 45 62 2 54 10
131 24 225 3 22 8 54 10 72 3 18 12 64 20 102 8 39 17 85 21 103 3 18 7 38 9
43 1 6 6 25 10 43 4 18 12 35 16 38 5 3 7 10 3 15 -5 8 8 54 36 124 4 11 18
45 29 75 68 174 201 348 318 418 116 69 268 84 381 36 88 -37 239 -194 289
-303 9 -20 21 -39 26 -42 5 -3 9 -10 9 -15 1 -12 8 -34 19 -59 23 -53 55 -173
68 -260 14 -89 6 -357 -12 -445 -9 -41 -18 -86 -21 -100 -13 -67 -19 -91 -27
-96 -5 -3 -7 -9 -4 -13 5 -8 -57 -194 -89 -266 -50 -114 -144 -301 -193 -385
-79 -135 -241 -379 -273 -410 -3 -3 -9 -13 -15 -22 -20 -34 -157 -209 -230
-294 -41 -48 -75 -91 -75 -96 0 -5 -4 -6 -10 -3 -5 3 -10 2 -10 -3 0 -21 -271
-298 -436 -446 -144 -129 -259 -226 -267 -226 -5 0 -88 82 -158 156 -25 27
-78 90 -118 139 -41 50 -77 92 -82 93 -5 2 -9 9 -9 15 0 7 -13 26 -28 42 -15
17 -52 64 -83 105 -119 160 -228 309 -289 395 -36 50 -68 95 -73 100 -4 6 -57
78 -117 160 -60 83 -118 161 -129 175 -158 206 -302 388 -331 419 -8 9 -40 46
-70 81 -192 226 -421 450 -642 628 -42 34 -81 62 -86 62 -6 0 -12 4 -14 8 -4
11 -124 92 -137 92 -5 0 -11 4 -13 8 -4 11 -143 92 -156 92 -5 0 -15 7 -22 15
-6 8 -15 14 -18 13 -4 -1 -41 14 -82 34 -41 19 -93 41 -115 48 -22 7 -44 15
-50 19 -5 3 -12 6 -15 7 -3 0 -30 8 -60 18 -30 10 -64 20 -75 22 -11 2 -38 8
-60 14 -200 54 -546 63 -770 20 -27 -5 -64 -12 -81 -15 -17 -2 -73 -18 -125
-34 -262 -81 -456 -207 -624 -406 -52 -62 -115 -149 -115 -159 0 -3 -16 -30
-35 -61 -20 -30 -33 -55 -30 -55 3 0 -6 -21 -19 -47 -21 -41 -46 -95 -51 -113
-1 -3 -14 -43 -29 -90 -16 -47 -32 -101 -36 -120 -36 -163 -51 -244 -56 -295
-3 -33 -7 -62 -9 -66 -19 -30 -28 -668 -12 -879 13 -180 18 -243 22 -290 8
-100 15 -166 20 -190 5 -24 14 -81 19 -124 2 -11 6 -28 9 -36 3 -8 8 -33 11
-55 3 -22 16 -83 30 -135 13 -52 22 -98 19 -102 -2 -5 0 -8 4 -8 5 0 9 -8 10
-17 1 -10 14 -54 28 -98 15 -44 28 -84 30 -90 1 -5 5 -17 8 -25 38 -101 61
-166 62 -170 0 -3 13 -31 28 -64 15 -32 27 -60 27 -62 0 -8 86 -178 120 -239
146 -261 307 -465 506 -642 82 -73 199 -163 213 -163 5 0 11 -4 13 -8 6 -16
266 -160 303 -168 6 -1 39 -15 75 -29 105 -44 274 -90 400 -109 275 -42 535
-41 820 1 19 3 49 7 65 8 17 2 30 4 30 5 0 2 20 6 65 13 19 4 67 13 105 22 39
9 78 19 88 21 17 4 39 9 75 18 9 3 51 15 92 26 41 12 80 23 85 24 6 2 17 6 25
9 14 5 120 40 130 42 3 1 12 5 20 8 8 3 44 16 79 28 35 12 75 27 89 35 14 7
29 11 34 8 4 -3 8 0 8 6 0 6 5 8 10 5 6 -3 10 -1 10 6 0 7 3 10 6 6 3 -3 33 7
67 22 34 15 65 29 70 29 4 1 42 17 84 37 41 19 78 35 80 35 3 0 58 27 124 59
65 33 119 56 119 53 0 -4 4 -2 8 3 4 6 36 26 72 45 36 18 108 58 160 88 52 30
104 60 114 66 11 6 25 15 30 19 22 17 118 77 122 77 3 0 10 5 17 10 12 11 184
130 204 143 7 4 79 -60 180 -160 217 -216 346 -333 532 -483 24 -19 49 -41 56
-48 8 -6 16 -12 20 -12 4 0 12 -6 19 -13 7 -6 25 -21 40 -32 16 -11 33 -25 40
-30 6 -6 22 -16 36 -22 14 -7 52 -27 85 -45 57 -31 208 -98 255 -113 3 -1 52
-17 110 -35 58 -19 109 -33 114 -32 4 2 14 -3 22 -9 8 -6 14 -9 14 -6 0 3 17
1 38 -4 121 -30 221 -47 312 -55 36 -3 72 -8 80 -11 8 -3 110 -8 227 -10 188
-5 337 3 483 24 19 3 46 6 60 8 14 2 25 4 25 5 0 1 11 3 25 5 36 4 89 14 130
25 19 5 44 11 55 13 53 10 272 77 330 102 17 7 50 21 75 31 57 24 283 135 290
143 3 3 21 15 40 25 19 11 63 39 98 63 35 23 67 43 71 43 5 0 12 7 15 16 4 9
9 14 12 11 3 -3 14 2 23 11 10 9 47 40 82 67 122 96 290 263 382 380 35 44
108 147 127 180 13 22 27 42 30 45 27 23 187 338 243 480 53 135 76 200 70
200 -3 0 -1 6 4 12 8 10 30 77 39 118 0 3 3 12 7 20 6 16 28 95 33 120 2 8 14
62 28 120 14 58 27 119 30 135 3 17 8 41 11 55 3 14 7 39 9 55 2 17 9 57 15
90 5 33 13 85 16 115 3 30 8 71 11 91 13 98 19 176 29 375 8 157 7 162 -13
173 -35 19 -59 -1 -67 -54 -5 -32 -32 -135 -53 -202 -11 -34 -17 -64 -14 -67
3 -3 -1 -6 -8 -6 -7 0 -11 -3 -8 -6 3 -3 -5 -33 -19 -67 -13 -34 -26 -70 -28
-79 -2 -9 -9 -27 -16 -40 -8 -13 -14 -25 -14 -28 0 -3 -6 -15 -13 -27 -7 -13
-11 -23 -8 -23 14 0 -215 -396 -244 -420 -3 -3 -19 -23 -35 -46 -75 -103 -205
-242 -320 -340 -92 -79 -219 -174 -232 -174 -6 0 -13 -7 -17 -15 -3 -8 -9 -15
-14 -15 -5 0 -46 -23 -92 -50 -46 -27 -89 -50 -96 -50 -7 0 -14 -3 -16 -7 -13
-30 -376 -173 -603 -238 -33 -9 -67 -20 -75 -23 -8 -3 -20 -6 -26 -7 -6 -2
-51 -13 -100 -25 -125 -31 -127 -31 -149 -35 -11 -2 -65 -13 -121 -24 -55 -11
-109 -20 -120 -20 -10 1 -32 -2 -48 -6 -103 -22 -445 -35 -596 -21 -85 7 -152
15 -180 21 -14 3 -42 8 -62 10 -20 2 -65 12 -100 21 -35 9 -74 18 -87 21 -14
2 -28 6 -33 9 -4 3 -16 7 -25 9 -70 15 -233 82 -376 155 -137 69 -146 75 -237
135 -41 28 -79 52 -85 54 -5 2 -20 14 -33 27 l-25 22 24 25 c36 36 110 123
169 197 28 36 57 72 64 81 39 48 185 259 178 259 -4 0 -2 4 4 8 26 18 163 255
258 447 97 196 146 311 138 319 -3 3 0 6 6 6 7 0 11 3 10 8 -1 4 4 21 11 37
40 99 104 286 116 335 2 8 4 15 5 15 1 0 4 11 6 25 2 14 11 43 19 65 7 22 17
54 21 70 4 17 8 32 9 35 11 42 47 200 50 219 2 14 7 37 10 51 3 14 8 32 10 40
2 8 4 15 5 15 1 0 3 14 5 30 2 17 6 44 9 60 16 92 25 159 20 166 -3 5 -1 9 3
9 5 0 9 10 10 23 0 12 4 47 7 77 8 65 12 107 21 215 3 44 8 105 11 135 7 82 7
555 0 635 -4 39 -9 95 -12 125 -3 30 -7 80 -9 110 -3 30 -7 75 -10 100 -4 25
-8 56 -9 70 -12 86 -19 126 -51 290 -3 14 -7 36 -10 50 -3 14 -14 59 -26 100
-11 41 -24 91 -29 111 -20 76 -83 207 -131 272 -52 68 -133 143 -202 186 -99
61 -244 84 -347 56z m-4589 -2696 c30 -4 72 -10 94 -13 22 -3 50 -7 61 -10 12
-2 37 -7 55 -10 74 -12 332 -92 404 -126 36 -17 140 -61 142 -61 2 1 18 -7 35
-17 18 -10 67 -36 108 -58 41 -21 77 -41 80 -44 3 -3 21 -14 40 -24 175 -95
472 -319 724 -547 76 -68 354 -348 416 -419 30 -35 60 -68 67 -75 12 -13 171
-202 211 -251 13 -16 63 -81 110 -144 48 -63 89 -117 92 -120 3 -3 10 -12 15
-21 29 -47 120 -170 156 -211 35 -39 40 -50 29 -62 -6 -9 -15 -15 -18 -14 -4
1 -56 -21 -116 -50 -59 -29 -110 -52 -113 -52 -2 0 -23 -8 -46 -19 -50 -22
-236 -92 -257 -96 -8 -2 -16 -4 -17 -4 -2 -1 -5 -1 -8 -1 -3 0 -19 -7 -35 -15
-17 -9 -30 -13 -30 -10 0 4 -6 3 -12 -2 -7 -4 -17 -8 -23 -9 -5 -1 -35 -9 -66
-18 -31 -9 -65 -18 -75 -21 -11 -2 -77 -17 -149 -34 -137 -31 -199 -43 -300
-55 -22 -3 -72 -10 -112 -15 -134 -20 -268 -26 -538 -26 -366 0 -552 15 -700
57 -22 6 -44 12 -50 14 -73 17 -262 102 -348 157 -32 21 -62 37 -67 37 -6 0
-10 4 -10 8 0 4 -13 16 -30 25 -16 10 -35 23 -42 30 -7 7 -35 30 -63 52 -27
22 -81 72 -120 110 -102 101 -285 335 -285 364 0 6 -4 11 -10 11 -5 0 -10 6
-10 14 0 8 -3 16 -7 18 -15 6 -129 239 -149 303 -2 6 -17 48 -33 95 -17 47
-32 97 -35 110 -2 14 -5 25 -6 25 -2 0 -6 19 -25 135 -15 89 -21 203 -16 352
0 15 8 60 16 100 21 98 22 99 34 131 73 189 181 317 342 406 60 33 185 77 245
87 22 3 59 10 84 14 60 10 294 9 361 -1z"/>
</g>
</svg>
